<svg width="160" height="160" viewBox="0 0 160 160" fill="none" xmlns="http://www.w3.org/2000/svg">
<g clip-path="url(#clip0)">
<mask id="mask0" mask-type="alpha" maskUnits="userSpaceOnUse" x="-7" y="-43" width="242" height="242">
<circle cx="114.258" cy="78.3596" r="120.582" fill="url(#paint0_radial)"/>
</mask>
<g mask="url(#mask0)">
<g style="mix-blend-mode:lighten">
<circle cx="114.258" cy="78.3596" r="35.3866" fill="url(#paint1_radial)" fill-opacity="0.5"/>
</g>
<mask id="path-3-inside-1" fill="white">
<path fill-rule="evenodd" clip-rule="evenodd" d="M20.7207 25H61.7207V35.4H32.7207V54.6H59.7207V65H32.7207V91.1802L20.7207 94.9751V25ZM119.279 63.8071V35.4H139.279V25H87.2793V35.4H107.279V67.602L119.279 63.8071ZM81.2559 75.8315V25H69.2559V79.6264L81.2559 75.8315Z"/>
</mask>
<path fill-rule="evenodd" clip-rule="evenodd" d="M20.7207 25H61.7207V35.4H32.7207V54.6H59.7207V65H32.7207V91.1802L20.7207 94.9751V25ZM119.279 63.8071V35.4H139.279V25H87.2793V35.4H107.279V67.602L119.279 63.8071ZM81.2559 75.8315V25H69.2559V79.6264L81.2559 75.8315Z" fill="url(#paint2_linear)"/>
<path d="M61.7207 25H63.7207V23H61.7207V25ZM20.7207 25V23H18.7207V25H20.7207ZM61.7207 35.4V37.4H63.7207V35.4H61.7207ZM32.7207 35.4V33.4H30.7207V35.4H32.7207ZM32.7207 54.6H30.7207V56.6H32.7207V54.6ZM59.7207 54.6H61.7207V52.6H59.7207V54.6ZM59.7207 65V67H61.7207V65H59.7207ZM32.7207 65V63H30.7207V65H32.7207ZM32.7207 91.1802L33.3237 93.0871L34.7207 92.6453V91.1802H32.7207ZM20.7207 94.9751H18.7207V97.7052L21.3237 96.882L20.7207 94.9751ZM119.279 63.8071L119.882 65.714L121.279 65.2722V63.8071H119.279ZM119.279 35.4V33.4H117.279V35.4H119.279ZM139.279 35.4V37.4H141.279V35.4H139.279ZM139.279 25H141.279V23H139.279V25ZM87.2793 25V23H85.2793V25H87.2793ZM87.2793 35.4H85.2793V37.4H87.2793V35.4ZM107.279 35.4H109.279V33.4H107.279V35.4ZM107.279 67.602H105.279V70.3321L107.882 69.5089L107.279 67.602ZM81.2559 75.8315L81.8589 77.7385L83.2559 77.2967V75.8315H81.2559ZM81.2559 25H83.2559V23H81.2559V25ZM69.2559 25V23H67.2559V25H69.2559ZM69.2559 79.6264H67.2559V82.3565L69.8589 81.5333L69.2559 79.6264ZM61.7207 23H20.7207V27H61.7207V23ZM63.7207 35.4V25H59.7207V35.4H63.7207ZM32.7207 37.4H61.7207V33.4H32.7207V37.4ZM34.7207 54.6V35.4H30.7207V54.6H34.7207ZM59.7207 52.6H32.7207V56.6H59.7207V52.6ZM61.7207 65V54.6H57.7207V65H61.7207ZM32.7207 67H59.7207V63H32.7207V67ZM34.7207 91.1802V65H30.7207V91.1802H34.7207ZM21.3237 96.882L33.3237 93.0871L32.1177 89.2733L20.1177 93.0681L21.3237 96.882ZM18.7207 25V94.9751H22.7207V25H18.7207ZM121.279 63.8071V35.4H117.279V63.8071H121.279ZM119.279 37.4H139.279V33.4H119.279V37.4ZM141.279 35.4V25H137.279V35.4H141.279ZM139.279 23H87.2793V27H139.279V23ZM85.2793 25V35.4H89.2793V25H85.2793ZM87.2793 37.4H107.279V33.4H87.2793V37.4ZM105.279 35.4V67.602H109.279V35.4H105.279ZM107.882 69.5089L119.882 65.714L118.676 61.9002L106.676 65.695L107.882 69.5089ZM83.2559 75.8315V25H79.2559V75.8315H83.2559ZM81.2559 23H69.2559V27H81.2559V23ZM67.2559 25V79.6264H71.2559V25H67.2559ZM69.8589 81.5333L81.8589 77.7385L80.6528 73.9246L68.6528 77.7195L69.8589 81.5333Z" fill="#DC2365" mask="url(#path-3-inside-1)"/>
<mask id="path-5-inside-2" fill="white">
<path fill-rule="evenodd" clip-rule="evenodd" d="M104.795 78.335L29.2727 100.307C24.5758 101.673 21.3455 105.977 21.3455 110.869V110.981C21.6762 110.564 22.0537 110.172 22.4823 109.809C24.7142 107.92 27.9628 107.143 32.0555 107.143C36.1383 107.143 39.3065 107.916 41.4317 109.86C42.0901 110.463 42.6086 111.14 43.0116 111.875L45.3495 111.303V107.5H54.3625L54.545 108.467C55.0551 108.137 55.5945 107.859 56.1634 107.643C57.7268 107.049 59.4073 106.965 61.1227 107.439L80.4398 102.708L82.2062 100.941C81.6513 99.7896 81.5215 98.4787 81.8397 97.2403C82.1579 96.002 82.9035 94.916 83.9449 94.1742C84.9863 93.4325 86.2564 93.0827 87.5307 93.1868C88.805 93.2908 90.0015 93.842 90.9088 94.7429C91.8161 95.6438 92.3757 96.8363 92.4887 98.1099C92.5389 98.6747 92.4997 99.2394 92.3766 99.7842L112.254 94.9154C111.944 94.5997 111.672 94.2451 111.444 93.858C110.797 92.7551 110.561 91.459 110.777 90.1988C110.994 88.9385 111.648 87.7953 112.626 86.9711C113.604 86.147 114.841 85.695 116.12 85.695C117.398 85.695 118.636 86.147 119.614 86.9711C120.591 87.7953 121.246 88.9385 121.462 90.1988C121.606 91.0388 121.549 91.8948 121.304 92.6989L129.736 90.6336C129.32 90.0776 129.012 89.4427 128.834 88.761C128.51 87.5246 128.634 86.2137 129.183 85.0597L121.179 77.0195C119.7 77.9985 117.966 78.5205 116.192 78.5205C114.419 78.5205 112.684 77.9985 111.205 77.0195L103.201 85.0417C103.748 86.1975 103.868 87.5093 103.542 88.7453C103.215 89.9814 102.461 91.0621 101.415 91.7965C100.368 92.5309 99.0955 92.8716 97.822 92.7586C96.5484 92.6455 95.3559 92.0859 94.455 91.1786C93.5541 90.2714 93.0029 89.0749 92.8989 87.8005C92.7948 86.5262 93.1446 85.2562 93.8863 84.2148C94.6281 83.1734 95.7141 82.4277 96.9524 82.1095C98.1908 81.7914 99.5017 81.9212 100.654 82.476L104.795 78.335ZM139.416 86.4527V74.6079C138.305 74.9546 137.105 74.9365 135.995 74.5442C134.638 74.065 133.528 73.0667 132.908 71.7689C132.682 71.2963 132.528 70.7981 132.447 70.2901L124.699 72.5441C124.455 73.2279 124.129 73.8815 123.726 74.49L131.749 82.4941C132.903 81.945 134.213 81.8213 135.45 82.1449C136.686 82.4684 137.768 83.2184 138.506 84.2624C138.97 84.921 139.279 85.6699 139.416 86.4527Z"/>
</mask>
<path fill-rule="evenodd" clip-rule="evenodd" d="M104.795 78.335L29.2727 100.307C24.5758 101.673 21.3455 105.977 21.3455 110.869V110.981C21.6762 110.564 22.0537 110.172 22.4823 109.809C24.7142 107.92 27.9628 107.143 32.0555 107.143C36.1383 107.143 39.3065 107.916 41.4317 109.86C42.0901 110.463 42.6086 111.14 43.0116 111.875L45.3495 111.303V107.5H54.3625L54.545 108.467C55.0551 108.137 55.5945 107.859 56.1634 107.643C57.7268 107.049 59.4073 106.965 61.1227 107.439L80.4398 102.708L82.2062 100.941C81.6513 99.7896 81.5215 98.4787 81.8397 97.2403C82.1579 96.002 82.9035 94.916 83.9449 94.1742C84.9863 93.4325 86.2564 93.0827 87.5307 93.1868C88.805 93.2908 90.0015 93.842 90.9088 94.7429C91.8161 95.6438 92.3757 96.8363 92.4887 98.1099C92.5389 98.6747 92.4997 99.2394 92.3766 99.7842L112.254 94.9154C111.944 94.5997 111.672 94.2451 111.444 93.858C110.797 92.7551 110.561 91.459 110.777 90.1988C110.994 88.9385 111.648 87.7953 112.626 86.9711C113.604 86.147 114.841 85.695 116.12 85.695C117.398 85.695 118.636 86.147 119.614 86.9711C120.591 87.7953 121.246 88.9385 121.462 90.1988C121.606 91.0388 121.549 91.8948 121.304 92.6989L129.736 90.6336C129.32 90.0776 129.012 89.4427 128.834 88.761C128.51 87.5246 128.634 86.2137 129.183 85.0597L121.179 77.0195C119.7 77.9985 117.966 78.5205 116.192 78.5205C114.419 78.5205 112.684 77.9985 111.205 77.0195L103.201 85.0417C103.748 86.1975 103.868 87.5093 103.542 88.7453C103.215 89.9814 102.461 91.0621 101.415 91.7965C100.368 92.5309 99.0955 92.8716 97.822 92.7586C96.5484 92.6455 95.3559 92.0859 94.455 91.1786C93.5541 90.2714 93.0029 89.0749 92.8989 87.8005C92.7948 86.5262 93.1446 85.2562 93.8863 84.2148C94.6281 83.1734 95.7141 82.4277 96.9524 82.1095C98.1908 81.7914 99.5017 81.9212 100.654 82.476L104.795 78.335ZM139.416 86.4527V74.6079C138.305 74.9546 137.105 74.9365 135.995 74.5442C134.638 74.065 133.528 73.0667 132.908 71.7689C132.682 71.2963 132.528 70.7981 132.447 70.2901L124.699 72.5441C124.455 73.2279 124.129 73.8815 123.726 74.49L131.749 82.4941C132.903 81.945 134.213 81.8213 135.45 82.1449C136.686 82.4684 137.768 83.2184 138.506 84.2624C138.97 84.921 139.279 85.6699 139.416 86.4527Z" fill="url(#paint3_radial)"/>
<path d="M29.2727 100.307L29.552 101.267H29.552L29.2727 100.307ZM104.795 78.335L105.502 79.0421L104.515 77.3748L104.795 78.335ZM21.3455 110.981H20.3455V113.854L22.1293 111.602L21.3455 110.981ZM22.4823 109.809L21.8362 109.046H21.8362L22.4823 109.809ZM41.4317 109.86L40.7567 110.598L41.4317 109.86ZM43.0116 111.875L42.1347 112.356L42.5038 113.029L43.2495 112.847L43.0116 111.875ZM45.3495 111.303L45.5874 112.274L46.3495 112.087V111.303H45.3495ZM45.3495 107.5V106.5H44.3495V107.5H45.3495ZM54.3625 107.5L55.3451 107.315L55.1914 106.5H54.3625V107.5ZM54.545 108.467L53.5623 108.653L53.8382 110.115L55.0878 109.307L54.545 108.467ZM56.1634 107.643L55.8081 106.708H55.8081L56.1634 107.643ZM61.1227 107.439L60.856 108.403L61.1073 108.473L61.3606 108.411L61.1227 107.439ZM80.4398 102.708L80.6777 103.679L80.9492 103.613L81.1469 103.415L80.4398 102.708ZM82.2062 100.941L82.9133 101.649L83.4151 101.147L83.1071 100.508L82.2062 100.941ZM92.4887 98.1099L93.4848 98.0215V98.0215L92.4887 98.1099ZM92.3766 99.7842L91.4012 99.5637L91.0449 101.14L92.6145 100.755L92.3766 99.7842ZM112.254 94.9154L112.492 95.8867L114.2 95.4683L112.968 94.2143L112.254 94.9154ZM111.444 93.858L112.307 93.352L112.307 93.352L111.444 93.858ZM110.777 90.1988L109.792 90.0297V90.0297L110.777 90.1988ZM112.626 86.9711L111.981 86.2066V86.2066L112.626 86.9711ZM119.614 86.9711L118.969 87.7357L119.614 86.9711ZM121.462 90.1988L120.477 90.3679V90.3679L121.462 90.1988ZM121.304 92.6989L120.347 92.4068L119.834 94.0885L121.542 93.6702L121.304 92.6989ZM129.736 90.6336L129.974 91.6049L131.441 91.2454L130.537 90.0349L129.736 90.6336ZM128.834 88.761L127.866 89.0142V89.0142L128.834 88.761ZM129.183 85.0597L130.086 85.4894L130.389 84.8534L129.892 84.3542L129.183 85.0597ZM121.179 77.0195L121.888 76.314L121.31 75.7336L120.627 76.1856L121.179 77.0195ZM111.205 77.0195L111.757 76.1856L111.075 75.7341L110.497 76.3132L111.205 77.0195ZM103.201 85.0417L102.493 84.3354L101.996 84.8334L102.297 85.4693L103.201 85.0417ZM97.822 92.7586L97.7336 93.7546L97.822 92.7586ZM94.455 91.1786L93.7454 91.8832V91.8832L94.455 91.1786ZM92.8989 87.8005L91.9022 87.8819V87.8819L92.8989 87.8005ZM93.8863 84.2148L93.0718 83.6346L93.8863 84.2148ZM96.9524 82.1095L97.2013 83.0781L96.9524 82.1095ZM100.654 82.476L100.22 83.377L100.859 83.6849L101.361 83.1831L100.654 82.476ZM139.416 74.6079H140.416V73.2484L139.119 73.6533L139.416 74.6079ZM139.416 86.4527L138.432 86.6254L140.416 86.4527H139.416ZM135.995 74.5442L136.328 73.6013V73.6013L135.995 74.5442ZM132.908 71.7689L133.81 71.3378V71.3378L132.908 71.7689ZM132.447 70.2901L133.434 70.1317L133.255 69.0136L132.167 69.3299L132.447 70.2901ZM124.699 72.5441L124.42 71.5839L123.929 71.7266L123.758 72.2078L124.699 72.5441ZM123.726 74.49L122.892 73.9383L122.441 74.6203L123.02 75.1979L123.726 74.49ZM131.749 82.4941L131.042 83.202L131.541 83.7001L132.178 83.3971L131.749 82.4941ZM135.45 82.1449L135.197 83.1123H135.197L135.45 82.1449ZM138.506 84.2624L137.689 84.8392V84.8392L138.506 84.2624ZM29.552 101.267L105.074 79.2952L104.515 77.3748L28.9933 99.3466L29.552 101.267ZM22.3455 110.869C22.3455 106.422 25.2821 102.509 29.552 101.267L28.9933 99.3466C23.8694 100.837 20.3455 105.532 20.3455 110.869H22.3455ZM22.3455 110.981V110.869H20.3455V110.981H22.3455ZM21.8362 109.046C21.3573 109.452 20.9336 109.891 20.5617 110.36L22.1293 111.602C22.4188 111.237 22.7501 110.893 23.1283 110.573L21.8362 109.046ZM32.0555 106.143C27.8674 106.143 24.3332 106.933 21.8362 109.046L23.1283 110.573C25.0952 108.908 28.0581 108.143 32.0555 108.143V106.143ZM42.1068 109.123C39.7061 106.926 36.2285 106.143 32.0555 106.143V108.143C36.048 108.143 38.907 108.906 40.7567 110.598L42.1068 109.123ZM43.8885 111.395C43.4351 110.568 42.8496 109.802 42.1068 109.123L40.7567 110.598C41.3306 111.123 41.7821 111.713 42.1347 112.356L43.8885 111.395ZM45.1116 110.331L42.7737 110.904L43.2495 112.847L45.5874 112.274L45.1116 110.331ZM44.3495 107.5V111.303H46.3495V107.5H44.3495ZM54.3625 106.5H45.3495V108.5H54.3625V106.5ZM55.5276 108.282L55.3451 107.315L53.3798 107.685L53.5623 108.653L55.5276 108.282ZM55.8081 106.708C55.169 106.951 54.567 107.262 54.0021 107.627L55.0878 109.307C55.5432 109.013 56.02 108.767 56.5186 108.578L55.8081 106.708ZM61.3894 106.476C59.4732 105.945 57.5748 106.037 55.8081 106.708L56.5186 108.578C57.8789 108.061 59.3413 107.984 60.856 108.403L61.3894 106.476ZM80.2019 101.737L60.8848 106.468L61.3606 108.411L80.6777 103.679L80.2019 101.737ZM81.4991 100.234L79.7326 102.001L81.1469 103.415L82.9133 101.649L81.4991 100.234ZM80.8712 96.9915C80.4943 98.4583 80.648 100.011 81.3053 101.375L83.1071 100.508C82.6546 99.5682 82.5488 98.4991 82.8082 97.4892L80.8712 96.9915ZM83.3648 93.3597C82.1313 94.2383 81.248 95.5247 80.8712 96.9915L82.8082 97.4892C83.0677 96.4793 83.6758 95.5937 84.5251 94.9888L83.3648 93.3597ZM87.6121 92.1901C86.1027 92.0669 84.5983 92.4811 83.3648 93.3597L84.5251 94.9888C85.3743 94.3838 86.4101 94.0986 87.4493 94.1835L87.6121 92.1901ZM91.6134 94.0333C90.5388 92.9662 89.1215 92.3134 87.6121 92.1901L87.4493 94.1835C88.4885 94.2683 89.4643 94.7178 90.2042 95.4525L91.6134 94.0333ZM93.4848 98.0215C93.3509 96.513 92.688 95.1004 91.6134 94.0333L90.2042 95.4525C90.9441 96.1872 91.4004 97.1597 91.4926 98.1983L93.4848 98.0215ZM93.352 100.005C93.4979 99.3593 93.5442 98.6905 93.4848 98.0215L91.4926 98.1983C91.5335 98.659 91.5016 99.1194 91.4012 99.5637L93.352 100.005ZM112.017 93.9441L92.1387 98.8129L92.6145 100.755L112.492 95.8867L112.017 93.9441ZM110.582 94.364C110.851 94.8225 111.174 95.2426 111.541 95.6164L112.968 94.2143C112.715 93.9569 112.492 93.6678 112.307 93.352L110.582 94.364ZM109.792 90.0297C109.536 91.5224 109.816 93.0576 110.582 94.364L112.307 93.352C111.779 92.4526 111.587 91.3956 111.763 90.3679L109.792 90.0297ZM111.981 86.2066C110.824 87.1828 110.048 88.5369 109.792 90.0297L111.763 90.3679C111.939 89.3401 112.473 88.4078 113.271 87.7357L111.981 86.2066ZM116.12 84.695C114.605 84.695 113.139 85.2304 111.981 86.2066L113.271 87.7357C114.068 87.0636 115.077 86.695 116.12 86.695V84.695ZM120.258 86.2066C119.1 85.2304 117.634 84.695 116.12 84.695V86.695C117.163 86.695 118.172 87.0636 118.969 87.7357L120.258 86.2066ZM122.448 90.0297C122.192 88.5369 121.416 87.1828 120.258 86.2066L118.969 87.7357C119.766 88.4078 120.3 89.3401 120.477 90.3679L122.448 90.0297ZM122.26 92.991C122.551 92.0386 122.618 91.0247 122.448 90.0297L120.477 90.3679C120.594 91.0529 120.548 91.751 120.347 92.4068L122.26 92.991ZM129.498 89.6623L121.066 91.7276L121.542 93.6702L129.974 91.6049L129.498 89.6623ZM127.866 89.0142C128.078 89.8217 128.443 90.5737 128.935 91.2322L130.537 90.0349C130.198 89.5815 129.947 89.0638 129.801 88.5078L127.866 89.0142ZM128.28 84.6301C127.63 85.997 127.483 87.5497 127.866 89.0142L129.801 88.5078C129.537 87.4996 129.638 86.4305 130.086 85.4894L128.28 84.6301ZM120.47 77.725L128.474 85.7653L129.892 84.3542L121.888 76.314L120.47 77.725ZM116.192 79.5205C118.162 79.5205 120.088 78.9407 121.731 77.8533L120.627 76.1856C119.312 77.0563 117.769 77.5205 116.192 77.5205V79.5205ZM110.653 77.8533C112.296 78.9407 114.222 79.5205 116.192 79.5205V77.5205C114.615 77.5205 113.072 77.0563 111.757 76.1856L110.653 77.8533ZM103.909 85.748L111.913 77.7258L110.497 76.3132L102.493 84.3354L103.909 85.748ZM104.508 89.001C104.896 87.5369 104.753 85.9831 104.105 84.6141L102.297 85.4693C102.743 86.4118 102.841 87.4816 102.575 88.4896L104.508 89.001ZM101.989 92.6151C103.229 91.7452 104.121 90.4651 104.508 89.001L102.575 88.4896C102.308 89.4977 101.694 90.379 100.84 90.9779L101.989 92.6151ZM97.7336 93.7546C99.2421 93.8886 100.749 93.4849 101.989 92.6151L100.84 90.9779C99.9868 91.5768 98.949 91.8547 97.9104 91.7625L97.7336 93.7546ZM93.7454 91.8832C94.8125 92.9579 96.2251 93.6207 97.7336 93.7546L97.9104 91.7625C96.8718 91.6703 95.8993 91.2139 95.1646 90.474L93.7454 91.8832ZM91.9022 87.8819C92.0255 89.3913 92.6783 90.8086 93.7454 91.8832L95.1646 90.474C94.4299 89.7341 93.9804 88.7584 93.8956 87.7192L91.9022 87.8819ZM93.0718 83.6346C92.1932 84.8681 91.779 86.3725 91.9022 87.8819L93.8956 87.7192C93.8107 86.6799 94.0959 85.6442 94.7009 84.7949L93.0718 83.6346ZM96.7036 81.141C95.2368 81.5178 93.9504 82.4011 93.0718 83.6346L94.7009 84.7949C95.3058 83.9456 96.1914 83.3375 97.2013 83.0781L96.7036 81.141ZM101.088 81.5751C99.7232 80.9179 98.1704 80.7641 96.7036 81.141L97.2013 83.0781C98.2112 82.8186 99.2803 82.9245 100.22 83.377L101.088 81.5751ZM104.087 77.6279L99.9465 81.7689L101.361 83.1831L105.502 79.0421L104.087 77.6279ZM138.416 74.6079V86.4527H140.416V74.6079H138.416ZM135.661 75.487C136.976 75.9517 138.398 75.9731 139.714 75.5626L139.119 73.6533C138.213 73.936 137.233 73.9213 136.328 73.6013L135.661 75.487ZM132.006 72.2001C132.74 73.7371 134.055 74.9195 135.661 75.487L136.328 73.6013C135.222 73.2105 134.316 72.3963 133.81 71.3378L132.006 72.2001ZM131.459 70.4485C131.556 71.0502 131.738 71.6404 132.006 72.2001L133.81 71.3378C133.626 70.9523 133.501 70.546 133.434 70.1317L131.459 70.4485ZM124.979 73.5043L132.726 71.2503L132.167 69.3299L124.42 71.5839L124.979 73.5043ZM124.56 75.0417C125.007 74.3658 125.37 73.6399 125.641 72.8804L123.758 72.2078C123.54 72.816 123.25 73.3972 122.892 73.9383L124.56 75.0417ZM132.455 81.7862L124.433 73.7821L123.02 75.1979L131.042 83.202L132.455 81.7862ZM135.703 81.1774C134.239 80.7942 132.686 80.9407 131.319 81.5911L132.178 83.3971C133.119 82.9493 134.188 82.8484 135.197 83.1123L135.703 81.1774ZM139.322 83.6856C138.449 82.449 137.167 81.5607 135.703 81.1774L135.197 83.1123C136.205 83.3761 137.087 83.9878 137.689 84.8392L139.322 83.6856ZM140.401 86.28C140.239 85.3528 139.873 84.4658 139.322 83.6856L137.689 84.8392C138.068 85.3762 138.32 85.9869 138.432 86.6254L140.401 86.28Z" fill="url(#paint4_linear)" mask="url(#path-5-inside-2)"/>
<path d="M29.2727 100.307L29.552 101.267H29.552L29.2727 100.307ZM104.795 78.335L105.502 79.0421L104.515 77.3748L104.795 78.335ZM21.3455 110.981H20.3455V113.854L22.1293 111.602L21.3455 110.981ZM22.4823 109.809L21.8362 109.046H21.8362L22.4823 109.809ZM41.4317 109.86L40.7567 110.598L41.4317 109.86ZM43.0116 111.875L42.1347 112.356L42.5038 113.029L43.2495 112.847L43.0116 111.875ZM45.3495 111.303L45.5874 112.274L46.3495 112.087V111.303H45.3495ZM45.3495 107.5V106.5H44.3495V107.5H45.3495ZM54.3625 107.5L55.3451 107.315L55.1914 106.5H54.3625V107.5ZM54.545 108.467L53.5623 108.653L53.8382 110.115L55.0878 109.307L54.545 108.467ZM56.1634 107.643L55.8081 106.708H55.8081L56.1634 107.643ZM61.1227 107.439L60.856 108.403L61.1073 108.473L61.3606 108.411L61.1227 107.439ZM80.4398 102.708L80.6777 103.679L80.9492 103.613L81.1469 103.415L80.4398 102.708ZM82.2062 100.941L82.9133 101.649L83.4151 101.147L83.1071 100.508L82.2062 100.941ZM92.4887 98.1099L93.4848 98.0215V98.0215L92.4887 98.1099ZM92.3766 99.7842L91.4012 99.5637L91.0449 101.14L92.6145 100.755L92.3766 99.7842ZM112.254 94.9154L112.492 95.8867L114.2 95.4683L112.968 94.2143L112.254 94.9154ZM111.444 93.858L112.307 93.352L112.307 93.352L111.444 93.858ZM110.777 90.1988L109.792 90.0297V90.0297L110.777 90.1988ZM112.626 86.9711L111.981 86.2066V86.2066L112.626 86.9711ZM119.614 86.9711L118.969 87.7357L119.614 86.9711ZM121.462 90.1988L120.477 90.3679V90.3679L121.462 90.1988ZM121.304 92.6989L120.347 92.4068L119.834 94.0885L121.542 93.6702L121.304 92.6989ZM129.736 90.6336L129.974 91.6049L131.441 91.2454L130.537 90.0349L129.736 90.6336ZM128.834 88.761L127.866 89.0142V89.0142L128.834 88.761ZM129.183 85.0597L130.086 85.4894L130.389 84.8534L129.892 84.3542L129.183 85.0597ZM121.179 77.0195L121.888 76.314L121.31 75.7336L120.627 76.1856L121.179 77.0195ZM111.205 77.0195L111.757 76.1856L111.075 75.7341L110.497 76.3132L111.205 77.0195ZM103.201 85.0417L102.493 84.3354L101.996 84.8334L102.297 85.4693L103.201 85.0417ZM97.822 92.7586L97.7336 93.7546L97.822 92.7586ZM94.455 91.1786L93.7454 91.8832V91.8832L94.455 91.1786ZM92.8989 87.8005L91.9022 87.8819V87.8819L92.8989 87.8005ZM93.8863 84.2148L93.0718 83.6346L93.8863 84.2148ZM96.9524 82.1095L97.2013 83.0781L96.9524 82.1095ZM100.654 82.476L100.22 83.377L100.859 83.6849L101.361 83.1831L100.654 82.476ZM139.416 74.6079H140.416V73.2484L139.119 73.6533L139.416 74.6079ZM139.416 86.4527L138.432 86.6254L140.416 86.4527H139.416ZM135.995 74.5442L136.328 73.6013V73.6013L135.995 74.5442ZM132.908 71.7689L133.81 71.3378V71.3378L132.908 71.7689ZM132.447 70.2901L133.434 70.1317L133.255 69.0136L132.167 69.3299L132.447 70.2901ZM124.699 72.5441L124.42 71.5839L123.929 71.7266L123.758 72.2078L124.699 72.5441ZM123.726 74.49L122.892 73.9383L122.441 74.6203L123.02 75.1979L123.726 74.49ZM131.749 82.4941L131.042 83.202L131.541 83.7001L132.178 83.3971L131.749 82.4941ZM135.45 82.1449L135.197 83.1123H135.197L135.45 82.1449ZM138.506 84.2624L137.689 84.8392V84.8392L138.506 84.2624ZM29.552 101.267L105.074 79.2952L104.515 77.3748L28.9933 99.3466L29.552 101.267ZM22.3455 110.869C22.3455 106.422 25.2821 102.509 29.552 101.267L28.9933 99.3466C23.8694 100.837 20.3455 105.532 20.3455 110.869H22.3455ZM22.3455 110.981V110.869H20.3455V110.981H22.3455ZM21.8362 109.046C21.3573 109.452 20.9336 109.891 20.5617 110.36L22.1293 111.602C22.4188 111.237 22.7501 110.893 23.1283 110.573L21.8362 109.046ZM32.0555 106.143C27.8674 106.143 24.3332 106.933 21.8362 109.046L23.1283 110.573C25.0952 108.908 28.0581 108.143 32.0555 108.143V106.143ZM42.1068 109.123C39.7061 106.926 36.2285 106.143 32.0555 106.143V108.143C36.048 108.143 38.907 108.906 40.7567 110.598L42.1068 109.123ZM43.8885 111.395C43.4351 110.568 42.8496 109.802 42.1068 109.123L40.7567 110.598C41.3306 111.123 41.7821 111.713 42.1347 112.356L43.8885 111.395ZM45.1116 110.331L42.7737 110.904L43.2495 112.847L45.5874 112.274L45.1116 110.331ZM44.3495 107.5V111.303H46.3495V107.5H44.3495ZM54.3625 106.5H45.3495V108.5H54.3625V106.5ZM55.5276 108.282L55.3451 107.315L53.3798 107.685L53.5623 108.653L55.5276 108.282ZM55.8081 106.708C55.169 106.951 54.567 107.262 54.0021 107.627L55.0878 109.307C55.5432 109.013 56.02 108.767 56.5186 108.578L55.8081 106.708ZM61.3894 106.476C59.4732 105.945 57.5748 106.037 55.8081 106.708L56.5186 108.578C57.8789 108.061 59.3413 107.984 60.856 108.403L61.3894 106.476ZM80.2019 101.737L60.8848 106.468L61.3606 108.411L80.6777 103.679L80.2019 101.737ZM81.4991 100.234L79.7326 102.001L81.1469 103.415L82.9133 101.649L81.4991 100.234ZM80.8712 96.9915C80.4943 98.4583 80.648 100.011 81.3053 101.375L83.1071 100.508C82.6546 99.5682 82.5488 98.4991 82.8082 97.4892L80.8712 96.9915ZM83.3648 93.3597C82.1313 94.2383 81.248 95.5247 80.8712 96.9915L82.8082 97.4892C83.0677 96.4793 83.6758 95.5937 84.5251 94.9888L83.3648 93.3597ZM87.6121 92.1901C86.1027 92.0669 84.5983 92.4811 83.3648 93.3597L84.5251 94.9888C85.3743 94.3838 86.4101 94.0986 87.4493 94.1835L87.6121 92.1901ZM91.6134 94.0333C90.5388 92.9662 89.1215 92.3134 87.6121 92.1901L87.4493 94.1835C88.4885 94.2683 89.4643 94.7178 90.2042 95.4525L91.6134 94.0333ZM93.4848 98.0215C93.3509 96.513 92.688 95.1004 91.6134 94.0333L90.2042 95.4525C90.9441 96.1872 91.4004 97.1597 91.4926 98.1983L93.4848 98.0215ZM93.352 100.005C93.4979 99.3593 93.5442 98.6905 93.4848 98.0215L91.4926 98.1983C91.5335 98.659 91.5016 99.1194 91.4012 99.5637L93.352 100.005ZM112.017 93.9441L92.1387 98.8129L92.6145 100.755L112.492 95.8867L112.017 93.9441ZM110.582 94.364C110.851 94.8225 111.174 95.2426 111.541 95.6164L112.968 94.2143C112.715 93.9569 112.492 93.6678 112.307 93.352L110.582 94.364ZM109.792 90.0297C109.536 91.5224 109.816 93.0576 110.582 94.364L112.307 93.352C111.779 92.4526 111.587 91.3956 111.763 90.3679L109.792 90.0297ZM111.981 86.2066C110.824 87.1828 110.048 88.5369 109.792 90.0297L111.763 90.3679C111.939 89.3401 112.473 88.4078 113.271 87.7357L111.981 86.2066ZM116.12 84.695C114.605 84.695 113.139 85.2304 111.981 86.2066L113.271 87.7357C114.068 87.0636 115.077 86.695 116.12 86.695V84.695ZM120.258 86.2066C119.1 85.2304 117.634 84.695 116.12 84.695V86.695C117.163 86.695 118.172 87.0636 118.969 87.7357L120.258 86.2066ZM122.448 90.0297C122.192 88.5369 121.416 87.1828 120.258 86.2066L118.969 87.7357C119.766 88.4078 120.3 89.3401 120.477 90.3679L122.448 90.0297ZM122.26 92.991C122.551 92.0386 122.618 91.0247 122.448 90.0297L120.477 90.3679C120.594 91.0529 120.548 91.751 120.347 92.4068L122.26 92.991ZM129.498 89.6623L121.066 91.7276L121.542 93.6702L129.974 91.6049L129.498 89.6623ZM127.866 89.0142C128.078 89.8217 128.443 90.5737 128.935 91.2322L130.537 90.0349C130.198 89.5815 129.947 89.0638 129.801 88.5078L127.866 89.0142ZM128.28 84.6301C127.63 85.997 127.483 87.5497 127.866 89.0142L129.801 88.5078C129.537 87.4996 129.638 86.4305 130.086 85.4894L128.28 84.6301ZM120.47 77.725L128.474 85.7653L129.892 84.3542L121.888 76.314L120.47 77.725ZM116.192 79.5205C118.162 79.5205 120.088 78.9407 121.731 77.8533L120.627 76.1856C119.312 77.0563 117.769 77.5205 116.192 77.5205V79.5205ZM110.653 77.8533C112.296 78.9407 114.222 79.5205 116.192 79.5205V77.5205C114.615 77.5205 113.072 77.0563 111.757 76.1856L110.653 77.8533ZM103.909 85.748L111.913 77.7258L110.497 76.3132L102.493 84.3354L103.909 85.748ZM104.508 89.001C104.896 87.5369 104.753 85.9831 104.105 84.6141L102.297 85.4693C102.743 86.4118 102.841 87.4816 102.575 88.4896L104.508 89.001ZM101.989 92.6151C103.229 91.7452 104.121 90.4651 104.508 89.001L102.575 88.4896C102.308 89.4977 101.694 90.379 100.84 90.9779L101.989 92.6151ZM97.7336 93.7546C99.2421 93.8886 100.749 93.4849 101.989 92.6151L100.84 90.9779C99.9868 91.5768 98.949 91.8547 97.9104 91.7625L97.7336 93.7546ZM93.7454 91.8832C94.8125 92.9579 96.2251 93.6207 97.7336 93.7546L97.9104 91.7625C96.8718 91.6703 95.8993 91.2139 95.1646 90.474L93.7454 91.8832ZM91.9022 87.8819C92.0255 89.3913 92.6783 90.8086 93.7454 91.8832L95.1646 90.474C94.4299 89.7341 93.9804 88.7584 93.8956 87.7192L91.9022 87.8819ZM93.0718 83.6346C92.1932 84.8681 91.779 86.3725 91.9022 87.8819L93.8956 87.7192C93.8107 86.6799 94.0959 85.6442 94.7009 84.7949L93.0718 83.6346ZM96.7036 81.141C95.2368 81.5178 93.9504 82.4011 93.0718 83.6346L94.7009 84.7949C95.3058 83.9456 96.1914 83.3375 97.2013 83.0781L96.7036 81.141ZM101.088 81.5751C99.7232 80.9179 98.1704 80.7641 96.7036 81.141L97.2013 83.0781C98.2112 82.8186 99.2803 82.9245 100.22 83.377L101.088 81.5751ZM104.087 77.6279L99.9465 81.7689L101.361 83.1831L105.502 79.0421L104.087 77.6279ZM138.416 74.6079V86.4527H140.416V74.6079H138.416ZM135.661 75.487C136.976 75.9517 138.398 75.9731 139.714 75.5626L139.119 73.6533C138.213 73.936 137.233 73.9213 136.328 73.6013L135.661 75.487ZM132.006 72.2001C132.74 73.7371 134.055 74.9195 135.661 75.487L136.328 73.6013C135.222 73.2105 134.316 72.3963 133.81 71.3378L132.006 72.2001ZM131.459 70.4485C131.556 71.0502 131.738 71.6404 132.006 72.2001L133.81 71.3378C133.626 70.9523 133.501 70.546 133.434 70.1317L131.459 70.4485ZM124.979 73.5043L132.726 71.2503L132.167 69.3299L124.42 71.5839L124.979 73.5043ZM124.56 75.0417C125.007 74.3658 125.37 73.6399 125.641 72.8804L123.758 72.2078C123.54 72.816 123.25 73.3972 122.892 73.9383L124.56 75.0417ZM132.455 81.7862L124.433 73.7821L123.02 75.1979L131.042 83.202L132.455 81.7862ZM135.703 81.1774C134.239 80.7942 132.686 80.9407 131.319 81.5911L132.178 83.3971C133.119 82.9493 134.188 82.8484 135.197 83.1123L135.703 81.1774ZM139.322 83.6856C138.449 82.449 137.167 81.5607 135.703 81.1774L135.197 83.1123C136.205 83.3761 137.087 83.9878 137.689 84.8392L139.322 83.6856ZM140.401 86.28C140.239 85.3528 139.873 84.4658 139.322 83.6856L137.689 84.8392C138.068 85.3762 138.32 85.9869 138.432 86.6254L140.401 86.28Z" fill="url(#paint5_radial)" mask="url(#path-5-inside-2)"/>
<path d="M29.2727 100.307L29.552 101.267H29.552L29.2727 100.307ZM104.795 78.335L105.502 79.0421L104.515 77.3748L104.795 78.335ZM21.3455 110.981H20.3455V113.854L22.1293 111.602L21.3455 110.981ZM22.4823 109.809L21.8362 109.046H21.8362L22.4823 109.809ZM41.4317 109.86L40.7567 110.598L41.4317 109.86ZM43.0116 111.875L42.1347 112.356L42.5038 113.029L43.2495 112.847L43.0116 111.875ZM45.3495 111.303L45.5874 112.274L46.3495 112.087V111.303H45.3495ZM45.3495 107.5V106.5H44.3495V107.5H45.3495ZM54.3625 107.5L55.3451 107.315L55.1914 106.5H54.3625V107.5ZM54.545 108.467L53.5623 108.653L53.8382 110.115L55.0878 109.307L54.545 108.467ZM56.1634 107.643L55.8081 106.708H55.8081L56.1634 107.643ZM61.1227 107.439L60.856 108.403L61.1073 108.473L61.3606 108.411L61.1227 107.439ZM80.4398 102.708L80.6777 103.679L80.9492 103.613L81.1469 103.415L80.4398 102.708ZM82.2062 100.941L82.9133 101.649L83.4151 101.147L83.1071 100.508L82.2062 100.941ZM92.4887 98.1099L93.4848 98.0215V98.0215L92.4887 98.1099ZM92.3766 99.7842L91.4012 99.5637L91.0449 101.14L92.6145 100.755L92.3766 99.7842ZM112.254 94.9154L112.492 95.8867L114.2 95.4683L112.968 94.2143L112.254 94.9154ZM111.444 93.858L112.307 93.352L112.307 93.352L111.444 93.858ZM110.777 90.1988L109.792 90.0297V90.0297L110.777 90.1988ZM112.626 86.9711L111.981 86.2066V86.2066L112.626 86.9711ZM119.614 86.9711L118.969 87.7357L119.614 86.9711ZM121.462 90.1988L120.477 90.3679V90.3679L121.462 90.1988ZM121.304 92.6989L120.347 92.4068L119.834 94.0885L121.542 93.6702L121.304 92.6989ZM129.736 90.6336L129.974 91.6049L131.441 91.2454L130.537 90.0349L129.736 90.6336ZM128.834 88.761L127.866 89.0142V89.0142L128.834 88.761ZM129.183 85.0597L130.086 85.4894L130.389 84.8534L129.892 84.3542L129.183 85.0597ZM121.179 77.0195L121.888 76.314L121.31 75.7336L120.627 76.1856L121.179 77.0195ZM111.205 77.0195L111.757 76.1856L111.075 75.7341L110.497 76.3132L111.205 77.0195ZM103.201 85.0417L102.493 84.3354L101.996 84.8334L102.297 85.4693L103.201 85.0417ZM97.822 92.7586L97.7336 93.7546L97.822 92.7586ZM94.455 91.1786L93.7454 91.8832V91.8832L94.455 91.1786ZM92.8989 87.8005L91.9022 87.8819V87.8819L92.8989 87.8005ZM93.8863 84.2148L93.0718 83.6346L93.8863 84.2148ZM96.9524 82.1095L97.2013 83.0781L96.9524 82.1095ZM100.654 82.476L100.22 83.377L100.859 83.6849L101.361 83.1831L100.654 82.476ZM139.416 74.6079H140.416V73.2484L139.119 73.6533L139.416 74.6079ZM139.416 86.4527L138.432 86.6254L140.416 86.4527H139.416ZM135.995 74.5442L136.328 73.6013V73.6013L135.995 74.5442ZM132.908 71.7689L133.81 71.3378V71.3378L132.908 71.7689ZM132.447 70.2901L133.434 70.1317L133.255 69.0136L132.167 69.3299L132.447 70.2901ZM124.699 72.5441L124.42 71.5839L123.929 71.7266L123.758 72.2078L124.699 72.5441ZM123.726 74.49L122.892 73.9383L122.441 74.6203L123.02 75.1979L123.726 74.49ZM131.749 82.4941L131.042 83.202L131.541 83.7001L132.178 83.3971L131.749 82.4941ZM135.45 82.1449L135.197 83.1123H135.197L135.45 82.1449ZM138.506 84.2624L137.689 84.8392V84.8392L138.506 84.2624ZM29.552 101.267L105.074 79.2952L104.515 77.3748L28.9933 99.3466L29.552 101.267ZM22.3455 110.869C22.3455 106.422 25.2821 102.509 29.552 101.267L28.9933 99.3466C23.8694 100.837 20.3455 105.532 20.3455 110.869H22.3455ZM22.3455 110.981V110.869H20.3455V110.981H22.3455ZM21.8362 109.046C21.3573 109.452 20.9336 109.891 20.5617 110.36L22.1293 111.602C22.4188 111.237 22.7501 110.893 23.1283 110.573L21.8362 109.046ZM32.0555 106.143C27.8674 106.143 24.3332 106.933 21.8362 109.046L23.1283 110.573C25.0952 108.908 28.0581 108.143 32.0555 108.143V106.143ZM42.1068 109.123C39.7061 106.926 36.2285 106.143 32.0555 106.143V108.143C36.048 108.143 38.907 108.906 40.7567 110.598L42.1068 109.123ZM43.8885 111.395C43.4351 110.568 42.8496 109.802 42.1068 109.123L40.7567 110.598C41.3306 111.123 41.7821 111.713 42.1347 112.356L43.8885 111.395ZM45.1116 110.331L42.7737 110.904L43.2495 112.847L45.5874 112.274L45.1116 110.331ZM44.3495 107.5V111.303H46.3495V107.5H44.3495ZM54.3625 106.5H45.3495V108.5H54.3625V106.5ZM55.5276 108.282L55.3451 107.315L53.3798 107.685L53.5623 108.653L55.5276 108.282ZM55.8081 106.708C55.169 106.951 54.567 107.262 54.0021 107.627L55.0878 109.307C55.5432 109.013 56.02 108.767 56.5186 108.578L55.8081 106.708ZM61.3894 106.476C59.4732 105.945 57.5748 106.037 55.8081 106.708L56.5186 108.578C57.8789 108.061 59.3413 107.984 60.856 108.403L61.3894 106.476ZM80.2019 101.737L60.8848 106.468L61.3606 108.411L80.6777 103.679L80.2019 101.737ZM81.4991 100.234L79.7326 102.001L81.1469 103.415L82.9133 101.649L81.4991 100.234ZM80.8712 96.9915C80.4943 98.4583 80.648 100.011 81.3053 101.375L83.1071 100.508C82.6546 99.5682 82.5488 98.4991 82.8082 97.4892L80.8712 96.9915ZM83.3648 93.3597C82.1313 94.2383 81.248 95.5247 80.8712 96.9915L82.8082 97.4892C83.0677 96.4793 83.6758 95.5937 84.5251 94.9888L83.3648 93.3597ZM87.6121 92.1901C86.1027 92.0669 84.5983 92.4811 83.3648 93.3597L84.5251 94.9888C85.3743 94.3838 86.4101 94.0986 87.4493 94.1835L87.6121 92.1901ZM91.6134 94.0333C90.5388 92.9662 89.1215 92.3134 87.6121 92.1901L87.4493 94.1835C88.4885 94.2683 89.4643 94.7178 90.2042 95.4525L91.6134 94.0333ZM93.4848 98.0215C93.3509 96.513 92.688 95.1004 91.6134 94.0333L90.2042 95.4525C90.9441 96.1872 91.4004 97.1597 91.4926 98.1983L93.4848 98.0215ZM93.352 100.005C93.4979 99.3593 93.5442 98.6905 93.4848 98.0215L91.4926 98.1983C91.5335 98.659 91.5016 99.1194 91.4012 99.5637L93.352 100.005ZM112.017 93.9441L92.1387 98.8129L92.6145 100.755L112.492 95.8867L112.017 93.9441ZM110.582 94.364C110.851 94.8225 111.174 95.2426 111.541 95.6164L112.968 94.2143C112.715 93.9569 112.492 93.6678 112.307 93.352L110.582 94.364ZM109.792 90.0297C109.536 91.5224 109.816 93.0576 110.582 94.364L112.307 93.352C111.779 92.4526 111.587 91.3956 111.763 90.3679L109.792 90.0297ZM111.981 86.2066C110.824 87.1828 110.048 88.5369 109.792 90.0297L111.763 90.3679C111.939 89.3401 112.473 88.4078 113.271 87.7357L111.981 86.2066ZM116.12 84.695C114.605 84.695 113.139 85.2304 111.981 86.2066L113.271 87.7357C114.068 87.0636 115.077 86.695 116.12 86.695V84.695ZM120.258 86.2066C119.1 85.2304 117.634 84.695 116.12 84.695V86.695C117.163 86.695 118.172 87.0636 118.969 87.7357L120.258 86.2066ZM122.448 90.0297C122.192 88.5369 121.416 87.1828 120.258 86.2066L118.969 87.7357C119.766 88.4078 120.3 89.3401 120.477 90.3679L122.448 90.0297ZM122.26 92.991C122.551 92.0386 122.618 91.0247 122.448 90.0297L120.477 90.3679C120.594 91.0529 120.548 91.751 120.347 92.4068L122.26 92.991ZM129.498 89.6623L121.066 91.7276L121.542 93.6702L129.974 91.6049L129.498 89.6623ZM127.866 89.0142C128.078 89.8217 128.443 90.5737 128.935 91.2322L130.537 90.0349C130.198 89.5815 129.947 89.0638 129.801 88.5078L127.866 89.0142ZM128.28 84.6301C127.63 85.997 127.483 87.5497 127.866 89.0142L129.801 88.5078C129.537 87.4996 129.638 86.4305 130.086 85.4894L128.28 84.6301ZM120.47 77.725L128.474 85.7653L129.892 84.3542L121.888 76.314L120.47 77.725ZM116.192 79.5205C118.162 79.5205 120.088 78.9407 121.731 77.8533L120.627 76.1856C119.312 77.0563 117.769 77.5205 116.192 77.5205V79.5205ZM110.653 77.8533C112.296 78.9407 114.222 79.5205 116.192 79.5205V77.5205C114.615 77.5205 113.072 77.0563 111.757 76.1856L110.653 77.8533ZM103.909 85.748L111.913 77.7258L110.497 76.3132L102.493 84.3354L103.909 85.748ZM104.508 89.001C104.896 87.5369 104.753 85.9831 104.105 84.6141L102.297 85.4693C102.743 86.4118 102.841 87.4816 102.575 88.4896L104.508 89.001ZM101.989 92.6151C103.229 91.7452 104.121 90.4651 104.508 89.001L102.575 88.4896C102.308 89.4977 101.694 90.379 100.84 90.9779L101.989 92.6151ZM97.7336 93.7546C99.2421 93.8886 100.749 93.4849 101.989 92.6151L100.84 90.9779C99.9868 91.5768 98.949 91.8547 97.9104 91.7625L97.7336 93.7546ZM93.7454 91.8832C94.8125 92.9579 96.2251 93.6207 97.7336 93.7546L97.9104 91.7625C96.8718 91.6703 95.8993 91.2139 95.1646 90.474L93.7454 91.8832ZM91.9022 87.8819C92.0255 89.3913 92.6783 90.8086 93.7454 91.8832L95.1646 90.474C94.4299 89.7341 93.9804 88.7584 93.8956 87.7192L91.9022 87.8819ZM93.0718 83.6346C92.1932 84.8681 91.779 86.3725 91.9022 87.8819L93.8956 87.7192C93.8107 86.6799 94.0959 85.6442 94.7009 84.7949L93.0718 83.6346ZM96.7036 81.141C95.2368 81.5178 93.9504 82.4011 93.0718 83.6346L94.7009 84.7949C95.3058 83.9456 96.1914 83.3375 97.2013 83.0781L96.7036 81.141ZM101.088 81.5751C99.7232 80.9179 98.1704 80.7641 96.7036 81.141L97.2013 83.0781C98.2112 82.8186 99.2803 82.9245 100.22 83.377L101.088 81.5751ZM104.087 77.6279L99.9465 81.7689L101.361 83.1831L105.502 79.0421L104.087 77.6279ZM138.416 74.6079V86.4527H140.416V74.6079H138.416ZM135.661 75.487C136.976 75.9517 138.398 75.9731 139.714 75.5626L139.119 73.6533C138.213 73.936 137.233 73.9213 136.328 73.6013L135.661 75.487ZM132.006 72.2001C132.74 73.7371 134.055 74.9195 135.661 75.487L136.328 73.6013C135.222 73.2105 134.316 72.3963 133.81 71.3378L132.006 72.2001ZM131.459 70.4485C131.556 71.0502 131.738 71.6404 132.006 72.2001L133.81 71.3378C133.626 70.9523 133.501 70.546 133.434 70.1317L131.459 70.4485ZM124.979 73.5043L132.726 71.2503L132.167 69.3299L124.42 71.5839L124.979 73.5043ZM124.56 75.0417C125.007 74.3658 125.37 73.6399 125.641 72.8804L123.758 72.2078C123.54 72.816 123.25 73.3972 122.892 73.9383L124.56 75.0417ZM132.455 81.7862L124.433 73.7821L123.02 75.1979L131.042 83.202L132.455 81.7862ZM135.703 81.1774C134.239 80.7942 132.686 80.9407 131.319 81.5911L132.178 83.3971C133.119 82.9493 134.188 82.8484 135.197 83.1123L135.703 81.1774ZM139.322 83.6856C138.449 82.449 137.167 81.5607 135.703 81.1774L135.197 83.1123C136.205 83.3761 137.087 83.9878 137.689 84.8392L139.322 83.6856ZM140.401 86.28C140.239 85.3528 139.873 84.4658 139.322 83.6856L137.689 84.8392C138.068 85.3762 138.32 85.9869 138.432 86.6254L140.401 86.28Z" fill="url(#paint6_radial)" mask="url(#path-5-inside-2)"/>
<mask id="path-7-inside-3" fill="white">
<path fill-rule="evenodd" clip-rule="evenodd" d="M116.976 103.542V135H122.841V127.452L125.595 124.29L132.633 135H139.416L129.369 119.904L138.396 109.5H131.97L123.096 119.904H122.841V102.192L116.976 103.542ZM42.2555 118.17H36.3905V117.048C36.3905 115.212 35.4215 113.988 33.0755 113.988H30.2705C28.4345 113.988 27.2105 115.212 27.2105 117.048V127.452C27.2105 129.288 28.4345 130.512 30.2705 130.512H33.0755C35.4215 130.512 36.3905 129.288 36.3905 127.452V126.33H42.2555V126.84C42.2555 132.348 39.8585 135.357 32.0555 135.357C24.2525 135.357 21.3455 132.348 21.3455 126.84V117.66C21.3455 112.152 24.2525 109.143 32.0555 109.143C39.8585 109.143 42.2555 112.152 42.2555 117.66V118.17ZM53.4185 112.203C55.4585 109.653 58.0595 108.48 61.0175 109.5V114.498H57.8045C55.0505 114.498 53.2145 116.334 53.2145 119.088V135H47.3495V109.5H52.7045L53.2145 112.203H53.4185ZM79.219 125.667V124.086H74.578C71.314 124.086 69.325 124.851 69.325 127.503C69.325 129.339 70.294 130.512 72.742 130.512H73.609C77.077 130.512 79.219 128.166 79.219 125.667ZM74.884 119.547H79.219V117.813C79.219 115.212 77.995 113.988 75.394 113.988H73.609C71.263 113.988 70.294 115.212 70.294 117.048V117.66H64.429C64.429 112.152 66.826 109.143 74.629 109.143C82.177 109.143 85.084 112.407 85.084 118.425V135H79.729L79.219 132.042H79.015C77.434 133.827 75.547 135.357 71.773 135.357C66.52 135.357 63.562 132.501 63.562 127.962C63.562 122.658 66.928 119.547 74.884 119.547ZM111.882 118.17H106.017V117.048C106.017 115.212 105.048 113.988 102.702 113.988H99.8975C98.0615 113.988 96.8375 115.212 96.8375 117.048V127.452C96.8375 129.288 98.0615 130.512 99.8975 130.512H102.702C105.048 130.512 106.017 129.288 106.017 127.452V126.33H111.882V126.84C111.882 132.348 109.485 135.357 101.682 135.357C93.8795 135.357 90.9725 132.348 90.9725 126.84V117.66C90.9725 112.152 93.8795 109.143 101.682 109.143C109.485 109.143 111.882 112.152 111.882 117.66V118.17Z"/>
</mask>
<path fill-rule="evenodd" clip-rule="evenodd" d="M116.976 103.542V135H122.841V127.452L125.595 124.29L132.633 135H139.416L129.369 119.904L138.396 109.5H131.97L123.096 119.904H122.841V102.192L116.976 103.542ZM42.2555 118.17H36.3905V117.048C36.3905 115.212 35.4215 113.988 33.0755 113.988H30.2705C28.4345 113.988 27.2105 115.212 27.2105 117.048V127.452C27.2105 129.288 28.4345 130.512 30.2705 130.512H33.0755C35.4215 130.512 36.3905 129.288 36.3905 127.452V126.33H42.2555V126.84C42.2555 132.348 39.8585 135.357 32.0555 135.357C24.2525 135.357 21.3455 132.348 21.3455 126.84V117.66C21.3455 112.152 24.2525 109.143 32.0555 109.143C39.8585 109.143 42.2555 112.152 42.2555 117.66V118.17ZM53.4185 112.203C55.4585 109.653 58.0595 108.48 61.0175 109.5V114.498H57.8045C55.0505 114.498 53.2145 116.334 53.2145 119.088V135H47.3495V109.5H52.7045L53.2145 112.203H53.4185ZM79.219 125.667V124.086H74.578C71.314 124.086 69.325 124.851 69.325 127.503C69.325 129.339 70.294 130.512 72.742 130.512H73.609C77.077 130.512 79.219 128.166 79.219 125.667ZM74.884 119.547H79.219V117.813C79.219 115.212 77.995 113.988 75.394 113.988H73.609C71.263 113.988 70.294 115.212 70.294 117.048V117.66H64.429C64.429 112.152 66.826 109.143 74.629 109.143C82.177 109.143 85.084 112.407 85.084 118.425V135H79.729L79.219 132.042H79.015C77.434 133.827 75.547 135.357 71.773 135.357C66.52 135.357 63.562 132.501 63.562 127.962C63.562 122.658 66.928 119.547 74.884 119.547ZM111.882 118.17H106.017V117.048C106.017 115.212 105.048 113.988 102.702 113.988H99.8975C98.0615 113.988 96.8375 115.212 96.8375 117.048V127.452C96.8375 129.288 98.0615 130.512 99.8975 130.512H102.702C105.048 130.512 106.017 129.288 106.017 127.452V126.33H111.882V126.84C111.882 132.348 109.485 135.357 101.682 135.357C93.8795 135.357 90.9725 132.348 90.9725 126.84V117.66C90.9725 112.152 93.8795 109.143 101.682 109.143C109.485 109.143 111.882 112.152 111.882 117.66V118.17Z" fill="url(#paint7_linear)"/>
<path d="M116.976 103.542L116.752 102.568L115.976 102.746V103.542H116.976ZM116.976 135H115.976V136H116.976V135ZM122.841 135V136H123.841V135H122.841ZM122.841 127.452L122.087 126.795L121.841 127.078V127.452H122.841ZM125.595 124.29L126.431 123.741L125.707 122.639L124.841 123.633L125.595 124.29ZM132.633 135L131.798 135.549L132.094 136H132.633V135ZM139.416 135V136H141.283L140.249 134.446L139.416 135ZM129.369 119.904L128.614 119.249L128.115 119.824L128.537 120.458L129.369 119.904ZM138.396 109.5L139.152 110.155L140.588 108.5H138.396V109.5ZM131.97 109.5V108.5H131.509L131.21 108.851L131.97 109.5ZM123.096 119.904V120.904H123.558L123.857 120.553L123.096 119.904ZM122.841 119.904H121.841V120.904H122.841V119.904ZM122.841 102.192H123.841V100.936L122.617 101.217L122.841 102.192ZM36.3905 118.17H35.3905V119.17H36.3905V118.17ZM42.2555 118.17V119.17H43.2555V118.17H42.2555ZM36.3905 126.33V125.33H35.3905V126.33H36.3905ZM42.2555 126.33H43.2555V125.33H42.2555V126.33ZM61.0175 109.5H62.0175V108.787L61.3435 108.555L61.0175 109.5ZM53.4185 112.203V113.203H53.8992L54.1994 112.828L53.4185 112.203ZM61.0175 114.498V115.498H62.0175V114.498H61.0175ZM53.2145 135V136H54.2145V135H53.2145ZM47.3495 135H46.3495V136H47.3495V135ZM47.3495 109.5V108.5H46.3495V109.5H47.3495ZM52.7045 109.5L53.6872 109.315L53.5335 108.5H52.7045V109.5ZM53.2145 112.203L52.2319 112.388L52.3856 113.203H53.2145V112.203ZM79.219 124.086H80.219V123.086H79.219V124.086ZM79.219 119.547V120.547H80.219V119.547H79.219ZM70.294 117.66V118.66H71.294V117.66H70.294ZM64.429 117.66H63.429V118.66H64.429V117.66ZM85.084 135V136H86.084V135H85.084ZM79.729 135L78.7435 135.17L78.8866 136H79.729V135ZM79.219 132.042L80.2044 131.872L80.0613 131.042H79.219V132.042ZM79.015 132.042V131.042H78.5648L78.2664 131.379L79.015 132.042ZM106.017 118.17H105.017V119.17H106.017V118.17ZM111.882 118.17V119.17H112.882V118.17H111.882ZM106.017 126.33V125.33H105.017V126.33H106.017ZM111.882 126.33H112.882V125.33H111.882V126.33ZM115.976 103.542V135H117.976V103.542H115.976ZM116.976 136H122.841V134H116.976V136ZM123.841 135V127.452H121.841V135H123.841ZM123.596 128.109L126.35 124.947L124.841 123.633L122.087 126.795L123.596 128.109ZM124.76 124.839L131.798 135.549L133.469 134.451L126.431 123.741L124.76 124.839ZM132.633 136H139.416V134H132.633V136ZM140.249 134.446L130.202 119.35L128.537 120.458L138.584 135.554L140.249 134.446ZM130.125 120.559L139.152 110.155L137.641 108.845L128.614 119.249L130.125 120.559ZM138.396 108.5H131.97V110.5H138.396V108.5ZM131.21 108.851L122.336 119.255L123.857 120.553L132.731 110.149L131.21 108.851ZM123.096 118.904H122.841V120.904H123.096V118.904ZM123.841 119.904V102.192H121.841V119.904H123.841ZM122.617 101.217L116.752 102.568L117.201 104.517L123.066 103.167L122.617 101.217ZM36.3905 119.17H42.2555V117.17H36.3905V119.17ZM35.3905 117.048V118.17H37.3905V117.048H35.3905ZM33.0755 114.988C34.083 114.988 34.618 115.249 34.9057 115.537C35.194 115.825 35.3905 116.297 35.3905 117.048H37.3905C37.3905 115.963 37.1025 114.905 36.3199 114.122C35.5365 113.339 34.4141 112.988 33.0755 112.988V114.988ZM30.2705 114.988H33.0755V112.988H30.2705V114.988ZM28.2105 117.048C28.2105 116.357 28.4364 115.859 28.7591 115.537C29.0818 115.214 29.5798 114.988 30.2705 114.988V112.988C29.1253 112.988 28.0932 113.374 27.3449 114.122C26.5966 114.871 26.2105 115.903 26.2105 117.048H28.2105ZM28.2105 127.452V117.048H26.2105V127.452H28.2105ZM30.2705 129.512C29.5798 129.512 29.0818 129.286 28.7591 128.963C28.4364 128.641 28.2105 128.143 28.2105 127.452H26.2105C26.2105 128.597 26.5966 129.629 27.3449 130.378C28.0932 131.126 29.1253 131.512 30.2705 131.512V129.512ZM33.0755 129.512H30.2705V131.512H33.0755V129.512ZM35.3905 127.452C35.3905 128.203 35.194 128.675 34.9057 128.963C34.618 129.251 34.083 129.512 33.0755 129.512V131.512C34.4141 131.512 35.5365 131.161 36.3199 130.378C37.1025 129.595 37.3905 128.537 37.3905 127.452H35.3905ZM35.3905 126.33V127.452H37.3905V126.33H35.3905ZM42.2555 125.33H36.3905V127.33H42.2555V125.33ZM43.2555 126.84V126.33H41.2555V126.84H43.2555ZM32.0555 136.357C36.0476 136.357 38.9068 135.594 40.7567 133.902C42.6317 132.186 43.2555 129.716 43.2555 126.84H41.2555C41.2555 129.472 40.6808 131.26 39.4066 132.426C38.1073 133.615 35.8664 134.357 32.0555 134.357V136.357ZM20.3455 126.84C20.3455 129.766 21.1227 132.23 23.1283 133.927C25.0954 135.592 28.0584 136.357 32.0555 136.357V134.357C28.2497 134.357 25.8577 133.617 24.4205 132.401C23.0218 131.217 22.3455 129.422 22.3455 126.84H20.3455ZM20.3455 117.66V126.84H22.3455V117.66H20.3455ZM32.0555 108.143C28.0584 108.143 25.0954 108.908 23.1283 110.573C21.1227 112.27 20.3455 114.734 20.3455 117.66H22.3455C22.3455 115.078 23.0218 113.283 24.4205 112.099C25.8577 110.883 28.2497 110.143 32.0555 110.143V108.143ZM43.2555 117.66C43.2555 114.784 42.6317 112.314 40.7567 110.598C38.9068 108.906 36.0476 108.143 32.0555 108.143V110.143C35.8664 110.143 38.1073 110.885 39.4066 112.074C40.6808 113.24 41.2555 115.028 41.2555 117.66H43.2555ZM43.2555 118.17V117.66H41.2555V118.17H43.2555ZM61.3435 108.555C59.6518 107.971 58.0207 108.007 56.5186 108.578C55.0335 109.142 53.7365 110.205 52.6377 111.578L54.1994 112.828C55.1406 111.651 56.1641 110.852 57.229 110.448C58.2769 110.049 59.4253 110.009 60.6916 110.445L61.3435 108.555ZM62.0175 114.498V109.5H60.0175V114.498H62.0175ZM57.8045 115.498H61.0175V113.498H57.8045V115.498ZM54.2145 119.088C54.2145 117.938 54.5934 117.058 55.1839 116.467C55.7744 115.877 56.6548 115.498 57.8045 115.498V113.498C56.2003 113.498 54.7857 114.037 53.7697 115.053C52.7537 116.069 52.2145 117.484 52.2145 119.088H54.2145ZM54.2145 135V119.088H52.2145V135H54.2145ZM47.3495 136H53.2145V134H47.3495V136ZM46.3495 109.5V135H48.3495V109.5H46.3495ZM52.7045 108.5H47.3495V110.5H52.7045V108.5ZM54.1972 112.018L53.6872 109.315L51.7219 109.685L52.2319 112.388L54.1972 112.018ZM53.4185 111.203H53.2145V113.203H53.4185V111.203ZM78.219 124.086V125.667H80.219V124.086H78.219ZM74.578 125.086H79.219V123.086H74.578V125.086ZM70.325 127.503C70.325 126.964 70.4257 126.59 70.5688 126.321C70.7085 126.06 70.9176 125.845 71.2275 125.666C71.8927 125.282 72.9797 125.086 74.578 125.086V123.086C72.9122 123.086 71.3727 123.273 70.2274 123.934C69.6321 124.278 69.1399 124.751 68.8047 125.379C68.4729 126 68.325 126.716 68.325 127.503H70.325ZM72.742 129.512C71.6618 129.512 71.0995 129.253 70.8055 128.972C70.5203 128.7 70.325 128.253 70.325 127.503H68.325C68.325 128.589 68.6141 129.646 69.4254 130.42C70.2279 131.185 71.3741 131.512 72.742 131.512V129.512ZM73.609 129.512H72.742V131.512H73.609V129.512ZM78.219 125.667C78.219 127.544 76.5967 129.512 73.609 129.512V131.512C77.5572 131.512 80.219 128.788 80.219 125.667H78.219ZM79.219 118.547H74.884V120.547H79.219V118.547ZM78.219 117.813V119.547H80.219V117.813H78.219ZM75.394 114.988C76.5556 114.988 77.2048 115.262 77.5747 115.632C77.9447 116.002 78.219 116.651 78.219 117.813H80.219C80.219 116.374 79.8812 115.11 78.9889 114.218C78.0967 113.326 76.8333 112.988 75.394 112.988V114.988ZM73.609 114.988H75.394V112.988H73.609V114.988ZM71.294 117.048C71.294 116.297 71.4905 115.825 71.7788 115.537C72.0664 115.249 72.6015 114.988 73.609 114.988V112.988C72.2704 112.988 71.148 113.339 70.3646 114.122C69.582 114.905 69.294 115.963 69.294 117.048H71.294ZM71.294 117.66V117.048H69.294V117.66H71.294ZM64.429 118.66H70.294V116.66H64.429V118.66ZM74.629 108.143C70.6368 108.143 67.7777 108.906 65.9278 110.598C64.0528 112.314 63.429 114.784 63.429 117.66H65.429C65.429 115.028 66.0037 113.24 67.2779 112.074C68.5772 110.885 70.8181 110.143 74.629 110.143V108.143ZM86.084 118.425C86.084 115.27 85.3213 112.629 83.3715 110.798C81.4361 108.981 78.5214 108.143 74.629 108.143V110.143C78.2845 110.143 80.5973 110.937 82.0025 112.256C83.3931 113.562 84.084 115.562 84.084 118.425H86.084ZM86.084 135V118.425H84.084V135H86.084ZM79.729 136H85.084V134H79.729V136ZM78.2335 132.212L78.7435 135.17L80.7144 134.83L80.2044 131.872L78.2335 132.212ZM79.015 133.042H79.219V131.042H79.015V133.042ZM71.773 136.357C73.8034 136.357 75.3829 135.943 76.6851 135.252C77.9781 134.566 78.9379 133.637 79.7636 132.705L78.2664 131.379C77.5111 132.232 76.7369 132.961 75.7475 133.486C74.7675 134.006 73.5165 134.357 71.773 134.357V136.357ZM62.562 127.962C62.562 130.456 63.3814 132.593 65.0214 134.098C66.6509 135.594 68.9714 136.357 71.773 136.357V134.357C69.3215 134.357 67.5365 133.692 66.3738 132.625C65.2215 131.567 64.562 130.007 64.562 127.962H62.562ZM74.884 118.547C70.8032 118.547 67.7103 119.34 65.6221 120.979C63.4874 122.654 62.562 125.084 62.562 127.962H64.562C64.562 125.536 65.3195 123.759 66.8568 122.552C68.4406 121.309 71.0087 120.547 74.884 120.547V118.547ZM106.017 119.17H111.882V117.17H106.017V119.17ZM105.017 117.048V118.17H107.017V117.048H105.017ZM102.702 114.988C103.71 114.988 104.245 115.249 104.533 115.537C104.821 115.825 105.017 116.297 105.017 117.048H107.017C107.017 115.963 106.729 114.905 105.947 114.122C105.163 113.339 104.041 112.988 102.702 112.988V114.988ZM99.8975 114.988H102.702V112.988H99.8975V114.988ZM97.8375 117.048C97.8375 116.357 98.0634 115.859 98.3861 115.537C98.7088 115.214 99.2067 114.988 99.8975 114.988V112.988C98.7522 112.988 97.7201 113.374 96.9719 114.122C96.2236 114.871 95.8375 115.903 95.8375 117.048H97.8375ZM97.8375 127.452V117.048H95.8375V127.452H97.8375ZM99.8975 129.512C99.2067 129.512 98.7088 129.286 98.3861 128.963C98.0634 128.641 97.8375 128.143 97.8375 127.452H95.8375C95.8375 128.597 96.2236 129.629 96.9719 130.378C97.7201 131.126 98.7522 131.512 99.8975 131.512V129.512ZM102.702 129.512H99.8975V131.512H102.702V129.512ZM105.017 127.452C105.017 128.203 104.821 128.675 104.533 128.963C104.245 129.251 103.71 129.512 102.702 129.512V131.512C104.041 131.512 105.163 131.161 105.947 130.378C106.729 129.595 107.017 128.537 107.017 127.452H105.017ZM105.017 126.33V127.452H107.017V126.33H105.017ZM111.882 125.33H106.017V127.33H111.882V125.33ZM112.882 126.84V126.33H110.882V126.84H112.882ZM101.682 136.357C105.675 136.357 108.534 135.594 110.384 133.902C112.259 132.186 112.882 129.716 112.882 126.84H110.882C110.882 129.472 110.308 131.26 109.034 132.426C107.734 133.615 105.493 134.357 101.682 134.357V136.357ZM89.9725 126.84C89.9725 129.766 90.7496 132.23 92.7553 133.927C94.7223 135.592 97.6853 136.357 101.682 136.357V134.357C97.8766 134.357 95.4846 133.617 94.0474 132.401C92.6488 131.217 91.9725 129.422 91.9725 126.84H89.9725ZM89.9725 117.66V126.84H91.9725V117.66H89.9725ZM101.682 108.143C97.6853 108.143 94.7223 108.908 92.7553 110.573C90.7496 112.27 89.9725 114.734 89.9725 117.66H91.9725C91.9725 115.078 92.6488 113.283 94.0474 112.099C95.4846 110.883 97.8766 110.143 101.682 110.143V108.143ZM112.882 117.66C112.882 114.784 112.259 112.314 110.384 110.598C108.534 108.906 105.675 108.143 101.682 108.143V110.143C105.493 110.143 107.734 110.885 109.034 112.074C110.308 113.24 110.882 115.028 110.882 117.66H112.882ZM112.882 118.17V117.66H110.882V118.17H112.882Z" fill="#EFEFEF" mask="url(#path-7-inside-3)"/>
<g filter="url(#filter0_d)">
<path d="M107.357 67.6241H125.027C125.277 68.7976 125.291 70.0091 125.068 71.1879C124.844 72.3668 124.388 73.4893 123.726 74.49L131.749 82.4941C132.903 81.945 134.214 81.8213 135.45 82.1449C136.686 82.4684 137.768 83.2184 138.506 84.2624C139.243 85.3064 139.587 86.5773 139.478 87.8506C139.369 89.1239 138.814 90.3178 137.91 91.2215C137.007 92.1251 135.813 92.6804 134.539 92.7893C133.266 92.8982 131.995 92.5537 130.951 91.8167C129.907 91.0796 129.157 89.9973 128.834 88.761C128.51 87.5246 128.634 86.2137 129.183 85.0597L121.179 77.0195C119.7 77.9985 117.966 78.5205 116.192 78.5205C114.419 78.5205 112.684 77.9985 111.205 77.0195L103.201 85.0417C103.748 86.1975 103.868 87.5093 103.542 88.7453C103.215 89.9814 102.461 91.0621 101.415 91.7965C100.368 92.5309 99.0956 92.8716 97.822 92.7586C96.5485 92.6455 95.3559 92.0859 94.455 91.1786C93.5541 90.2714 93.003 89.0749 92.8989 87.8005C92.7948 86.5262 93.1446 85.2562 93.8864 84.2148C94.6281 83.1734 95.7141 82.4277 96.9524 82.1095C98.1908 81.7914 99.5017 81.9212 100.654 82.476L108.658 74.4719C107.996 73.4712 107.54 72.3487 107.317 71.1699C107.093 69.9911 107.107 68.7795 107.357 67.6061V67.6241Z" fill="url(#paint8_radial)"/>
<path d="M107.357 67.6241H125.027C125.277 68.7976 125.291 70.0091 125.068 71.1879C124.844 72.3668 124.388 73.4893 123.726 74.49L131.749 82.4941C132.903 81.945 134.214 81.8213 135.45 82.1449C136.686 82.4684 137.768 83.2184 138.506 84.2624C139.243 85.3064 139.587 86.5773 139.478 87.8506C139.369 89.1239 138.814 90.3178 137.91 91.2215C137.007 92.1251 135.813 92.6804 134.539 92.7893C133.266 92.8982 131.995 92.5537 130.951 91.8167C129.907 91.0796 129.157 89.9973 128.834 88.761C128.51 87.5246 128.634 86.2137 129.183 85.0597L121.179 77.0195C119.7 77.9985 117.966 78.5205 116.192 78.5205C114.419 78.5205 112.684 77.9985 111.205 77.0195L103.201 85.0417C103.748 86.1975 103.868 87.5093 103.542 88.7453C103.215 89.9814 102.461 91.0621 101.415 91.7965C100.368 92.5309 99.0956 92.8716 97.822 92.7586C96.5485 92.6455 95.3559 92.0859 94.455 91.1786C93.5541 90.2714 93.003 89.0749 92.8989 87.8005C92.7948 86.5262 93.1446 85.2562 93.8864 84.2148C94.6281 83.1734 95.7141 82.4277 96.9524 82.1095C98.1908 81.7914 99.5017 81.9212 100.654 82.476L108.658 74.4719C107.996 73.4712 107.54 72.3487 107.317 71.1699C107.093 69.9911 107.107 68.7795 107.357 67.6061V67.6241Z" fill="url(#paint9_radial)"/>
<path d="M107.357 67.6241H125.027C125.277 68.7976 125.291 70.0091 125.068 71.1879C124.844 72.3668 124.388 73.4893 123.726 74.49L131.749 82.4941C132.903 81.945 134.214 81.8213 135.45 82.1449C136.686 82.4684 137.768 83.2184 138.506 84.2624C139.243 85.3064 139.587 86.5773 139.478 87.8506C139.369 89.1239 138.814 90.3178 137.91 91.2215C137.007 92.1251 135.813 92.6804 134.539 92.7893C133.266 92.8982 131.995 92.5537 130.951 91.8167C129.907 91.0796 129.157 89.9973 128.834 88.761C128.51 87.5246 128.634 86.2137 129.183 85.0597L121.179 77.0195C119.7 77.9985 117.966 78.5205 116.192 78.5205C114.419 78.5205 112.684 77.9985 111.205 77.0195L103.201 85.0417C103.748 86.1975 103.868 87.5093 103.542 88.7453C103.215 89.9814 102.461 91.0621 101.415 91.7965C100.368 92.5309 99.0956 92.8716 97.822 92.7586C96.5485 92.6455 95.3559 92.0859 94.455 91.1786C93.5541 90.2714 93.003 89.0749 92.8989 87.8005C92.7948 86.5262 93.1446 85.2562 93.8864 84.2148C94.6281 83.1734 95.7141 82.4277 96.9524 82.1095C98.1908 81.7914 99.5017 81.9212 100.654 82.476L108.658 74.4719C107.996 73.4712 107.54 72.3487 107.317 71.1699C107.093 69.9911 107.107 68.7795 107.357 67.6061V67.6241Z" fill="url(#paint10_radial)"/>
<path d="M107.357 67.6241H125.027C125.277 68.7976 125.291 70.0091 125.068 71.1879C124.844 72.3668 124.388 73.4893 123.726 74.49L131.749 82.4941C132.903 81.945 134.214 81.8213 135.45 82.1449C136.686 82.4684 137.768 83.2184 138.506 84.2624C139.243 85.3064 139.587 86.5773 139.478 87.8506C139.369 89.1239 138.814 90.3178 137.91 91.2215C137.007 92.1251 135.813 92.6804 134.539 92.7893C133.266 92.8982 131.995 92.5537 130.951 91.8167C129.907 91.0796 129.157 89.9973 128.834 88.761C128.51 87.5246 128.634 86.2137 129.183 85.0597L121.179 77.0195C119.7 77.9985 117.966 78.5205 116.192 78.5205C114.419 78.5205 112.684 77.9985 111.205 77.0195L103.201 85.0417C103.748 86.1975 103.868 87.5093 103.542 88.7453C103.215 89.9814 102.461 91.0621 101.415 91.7965C100.368 92.5309 99.0956 92.8716 97.822 92.7586C96.5485 92.6455 95.3559 92.0859 94.455 91.1786C93.5541 90.2714 93.003 89.0749 92.8989 87.8005C92.7948 86.5262 93.1446 85.2562 93.8864 84.2148C94.6281 83.1734 95.7141 82.4277 96.9524 82.1095C98.1908 81.7914 99.5017 81.9212 100.654 82.476L108.658 74.4719C107.996 73.4712 107.54 72.3487 107.317 71.1699C107.093 69.9911 107.107 68.7795 107.357 67.6061V67.6241Z" fill="url(#paint11_radial)" fill-opacity="0.9"/>
<path d="M107.357 67.6241H125.027C125.277 68.7976 125.291 70.0091 125.068 71.1879C124.844 72.3668 124.388 73.4893 123.726 74.49L131.749 82.4941C132.903 81.945 134.214 81.8213 135.45 82.1449C136.686 82.4684 137.768 83.2184 138.506 84.2624C139.243 85.3064 139.587 86.5773 139.478 87.8506C139.369 89.1239 138.814 90.3178 137.91 91.2215C137.007 92.1251 135.813 92.6804 134.539 92.7893C133.266 92.8982 131.995 92.5537 130.951 91.8167C129.907 91.0796 129.157 89.9973 128.834 88.761C128.51 87.5246 128.634 86.2137 129.183 85.0597L121.179 77.0195C119.7 77.9985 117.966 78.5205 116.192 78.5205C114.419 78.5205 112.684 77.9985 111.205 77.0195L103.201 85.0417C103.748 86.1975 103.868 87.5093 103.542 88.7453C103.215 89.9814 102.461 91.0621 101.415 91.7965C100.368 92.5309 99.0956 92.8716 97.822 92.7586C96.5485 92.6455 95.3559 92.0859 94.455 91.1786C93.5541 90.2714 93.003 89.0749 92.8989 87.8005C92.7948 86.5262 93.1446 85.2562 93.8864 84.2148C94.6281 83.1734 95.7141 82.4277 96.9524 82.1095C98.1908 81.7914 99.5017 81.9212 100.654 82.476L108.658 74.4719C107.996 73.4712 107.54 72.3487 107.317 71.1699C107.093 69.9911 107.107 68.7795 107.357 67.6061V67.6241Z" fill="url(#paint12_radial)" fill-opacity="0.8"/>
<path d="M161.29 78.2843C159.554 77.9302 157.96 77.0734 156.707 75.8205C155.454 74.5676 154.597 72.9739 154.243 71.2377H142.915C142.435 72.5939 141.437 73.7041 140.139 74.3241C138.842 74.9442 137.351 75.0234 135.995 74.5442C134.638 74.065 133.528 73.0667 132.908 71.769C132.288 70.4712 132.209 68.9803 132.688 67.6241H161.29V78.2843Z" fill="url(#paint13_radial)"/>
<path d="M161.29 78.2843C159.554 77.9302 157.96 77.0734 156.707 75.8205C155.454 74.5676 154.597 72.9739 154.243 71.2377H142.915C142.435 72.5939 141.437 73.7041 140.139 74.3241C138.842 74.9442 137.351 75.0234 135.995 74.5442C134.638 74.065 133.528 73.0667 132.908 71.769C132.288 70.4712 132.209 68.9803 132.688 67.6241H161.29V78.2843Z" fill="url(#paint14_radial)"/>
<path d="M161.29 78.2843C159.554 77.9302 157.96 77.0734 156.707 75.8205C155.454 74.5676 154.597 72.9739 154.243 71.2377H142.915C142.435 72.5939 141.437 73.7041 140.139 74.3241C138.842 74.9442 137.351 75.0234 135.995 74.5442C134.638 74.065 133.528 73.0667 132.908 71.769C132.288 70.4712 132.209 68.9803 132.688 67.6241H161.29V78.2843Z" fill="url(#paint15_radial)"/>
<path d="M161.29 78.2843C159.554 77.9302 157.96 77.0734 156.707 75.8205C155.454 74.5676 154.597 72.9739 154.243 71.2377H142.915C142.435 72.5939 141.437 73.7041 140.139 74.3241C138.842 74.9442 137.351 75.0234 135.995 74.5442C134.638 74.065 133.528 73.0667 132.908 71.769C132.288 70.4712 132.209 68.9803 132.688 67.6241H161.29V78.2843Z" fill="url(#paint16_radial)" fill-opacity="0.9"/>
<path d="M161.29 78.2843C159.554 77.9302 157.96 77.0734 156.707 75.8205C155.454 74.5676 154.597 72.9739 154.243 71.2377H142.915C142.435 72.5939 141.437 73.7041 140.139 74.3241C138.842 74.9442 137.351 75.0234 135.995 74.5442C134.638 74.065 133.528 73.0667 132.908 71.769C132.288 70.4712 132.209 68.9803 132.688 67.6241H161.29V78.2843Z" fill="url(#paint17_radial)" fill-opacity="0.8"/>
<path d="M74.2021 108.946L82.2062 100.942C81.6513 99.7896 81.5215 98.4787 81.8397 97.2403C82.1579 96.002 82.9035 94.916 83.9449 94.1742C84.9863 93.4325 86.2564 93.0827 87.5307 93.1868C88.805 93.2908 90.0015 93.842 90.9088 94.7429C91.8161 95.6438 92.3757 96.8364 92.4887 98.1099C92.6018 99.3834 92.261 100.656 91.5267 101.703C90.7923 102.749 89.7116 103.503 88.4755 103.829C87.2395 104.156 85.9276 104.036 84.7719 103.489L76.7316 111.493L74.2021 108.946Z" fill="url(#paint18_radial)"/>
<path d="M74.2021 108.946L82.2062 100.942C81.6513 99.7896 81.5215 98.4787 81.8397 97.2403C82.1579 96.002 82.9035 94.916 83.9449 94.1742C84.9863 93.4325 86.2564 93.0827 87.5307 93.1868C88.805 93.2908 90.0015 93.842 90.9088 94.7429C91.8161 95.6438 92.3757 96.8364 92.4887 98.1099C92.6018 99.3834 92.261 100.656 91.5267 101.703C90.7923 102.749 89.7116 103.503 88.4755 103.829C87.2395 104.156 85.9276 104.036 84.7719 103.489L76.7316 111.493L74.2021 108.946Z" fill="url(#paint19_radial)"/>
<path d="M74.2021 108.946L82.2062 100.942C81.6513 99.7896 81.5215 98.4787 81.8397 97.2403C82.1579 96.002 82.9035 94.916 83.9449 94.1742C84.9863 93.4325 86.2564 93.0827 87.5307 93.1868C88.805 93.2908 90.0015 93.842 90.9088 94.7429C91.8161 95.6438 92.3757 96.8364 92.4887 98.1099C92.6018 99.3834 92.261 100.656 91.5267 101.703C90.7923 102.749 89.7116 103.503 88.4755 103.829C87.2395 104.156 85.9276 104.036 84.7719 103.489L76.7316 111.493L74.2021 108.946Z" fill="url(#paint20_radial)"/>
<path d="M74.2021 108.946L82.2062 100.942C81.6513 99.7896 81.5215 98.4787 81.8397 97.2403C82.1579 96.002 82.9035 94.916 83.9449 94.1742C84.9863 93.4325 86.2564 93.0827 87.5307 93.1868C88.805 93.2908 90.0015 93.842 90.9088 94.7429C91.8161 95.6438 92.3757 96.8364 92.4887 98.1099C92.6018 99.3834 92.261 100.656 91.5267 101.703C90.7923 102.749 89.7116 103.503 88.4755 103.829C87.2395 104.156 85.9276 104.036 84.7719 103.489L76.7316 111.493L74.2021 108.946Z" fill="url(#paint21_radial)" fill-opacity="0.9"/>
<path d="M74.2021 108.946L82.2062 100.942C81.6513 99.7896 81.5215 98.4787 81.8397 97.2403C82.1579 96.002 82.9035 94.916 83.9449 94.1742C84.9863 93.4325 86.2564 93.0827 87.5307 93.1868C88.805 93.2908 90.0015 93.842 90.9088 94.7429C91.8161 95.6438 92.3757 96.8364 92.4887 98.1099C92.6018 99.3834 92.261 100.656 91.5267 101.703C90.7923 102.749 89.7116 103.503 88.4755 103.829C87.2395 104.156 85.9276 104.036 84.7719 103.489L76.7316 111.493L74.2021 108.946Z" fill="url(#paint22_radial)" fill-opacity="0.8"/>
<path d="M114.313 96.2258C113.107 95.7995 112.091 94.9609 111.444 93.858C110.798 92.7551 110.561 91.459 110.777 90.1988C110.994 88.9385 111.648 87.7953 112.626 86.9711C113.604 86.147 114.841 85.695 116.12 85.695C117.398 85.695 118.636 86.147 119.614 86.9711C120.591 87.7953 121.246 88.9385 121.462 90.1988C121.678 91.459 121.442 92.7551 120.795 93.858C120.148 94.9609 119.132 95.7995 117.927 96.2258H114.313Z" fill="url(#paint23_radial)"/>
<path d="M114.313 96.2258C113.107 95.7995 112.091 94.9609 111.444 93.858C110.798 92.7551 110.561 91.459 110.777 90.1988C110.994 88.9385 111.648 87.7953 112.626 86.9711C113.604 86.147 114.841 85.695 116.12 85.695C117.398 85.695 118.636 86.147 119.614 86.9711C120.591 87.7953 121.246 88.9385 121.462 90.1988C121.678 91.459 121.442 92.7551 120.795 93.858C120.148 94.9609 119.132 95.7995 117.927 96.2258H114.313Z" fill="url(#paint24_radial)"/>
<path d="M114.313 96.2258C113.107 95.7995 112.091 94.9609 111.444 93.858C110.798 92.7551 110.561 91.459 110.777 90.1988C110.994 88.9385 111.648 87.7953 112.626 86.9711C113.604 86.147 114.841 85.695 116.12 85.695C117.398 85.695 118.636 86.147 119.614 86.9711C120.591 87.7953 121.246 88.9385 121.462 90.1988C121.678 91.459 121.442 92.7551 120.795 93.858C120.148 94.9609 119.132 95.7995 117.927 96.2258H114.313Z" fill="url(#paint25_radial)"/>
<path d="M114.313 96.2258C113.107 95.7995 112.091 94.9609 111.444 93.858C110.798 92.7551 110.561 91.459 110.777 90.1988C110.994 88.9385 111.648 87.7953 112.626 86.9711C113.604 86.147 114.841 85.695 116.12 85.695C117.398 85.695 118.636 86.147 119.614 86.9711C120.591 87.7953 121.246 88.9385 121.462 90.1988C121.678 91.459 121.442 92.7551 120.795 93.858C120.148 94.9609 119.132 95.7995 117.927 96.2258H114.313Z" fill="url(#paint26_radial)" fill-opacity="0.9"/>
<path d="M114.313 96.2258C113.107 95.7995 112.091 94.9609 111.444 93.858C110.798 92.7551 110.561 91.459 110.777 90.1988C110.994 88.9385 111.648 87.7953 112.626 86.9711C113.604 86.147 114.841 85.695 116.12 85.695C117.398 85.695 118.636 86.147 119.614 86.9711C120.591 87.7953 121.246 88.9385 121.462 90.1988C121.678 91.459 121.442 92.7551 120.795 93.858C120.148 94.9609 119.132 95.7995 117.927 96.2258H114.313Z" fill="url(#paint27_radial)" fill-opacity="0.8"/>
</g>
</g>
</g>
<defs>
<filter id="filter0_d" x="67.2021" y="60.6061" width="101.088" height="57.8871" filterUnits="userSpaceOnUse" color-interpolation-filters="sRGB">
<feFlood flood-opacity="0" result="BackgroundImageFix"/>
<feColorMatrix in="SourceAlpha" type="matrix" values="0 0 0 0 0 0 0 0 0 0 0 0 0 0 0 0 0 0 127 0"/>
<feOffset/>
<feGaussianBlur stdDeviation="3.5"/>
<feColorMatrix type="matrix" values="0 0 0 0 1 0 0 0 0 0.443833 0 0 0 0 0.408333 0 0 0 0.48 0"/>
<feBlend mode="normal" in2="BackgroundImageFix" result="effect1_dropShadow"/>
<feBlend mode="normal" in="SourceGraphic" in2="effect1_dropShadow" result="shape"/>
</filter>
<radialGradient id="paint0_radial" cx="0" cy="0" r="1" gradientUnits="userSpaceOnUse" gradientTransform="translate(114.258 78.3596) rotate(90) scale(120.582)">
<stop offset="0.557292"/>
<stop offset="1" stop-opacity="0"/>
</radialGradient>
<radialGradient id="paint1_radial" cx="0" cy="0" r="1" gradientUnits="userSpaceOnUse" gradientTransform="translate(114.258 78.3596) rotate(90) scale(35.3866)">
<stop stop-color="#FF4337"/>
<stop offset="1" stop-color="#FF7168" stop-opacity="0"/>
</radialGradient>
<linearGradient id="paint2_linear" x1="98.4169" y1="75.1944" x2="84.0396" y2="48.9186" gradientUnits="userSpaceOnUse">
<stop stop-color="#E11F65" stop-opacity="0.6"/>
<stop offset="1" stop-color="#E11F65" stop-opacity="0"/>
</linearGradient>
<radialGradient id="paint3_radial" cx="0" cy="0" r="1" gradientUnits="userSpaceOnUse" gradientTransform="translate(111.647 88.3589) rotate(76.6075) scale(21.8378 62.0031)">
<stop stop-color="#FF7168" stop-opacity="0.4"/>
<stop offset="1" stop-color="#FF7168" stop-opacity="0"/>
</radialGradient>
<linearGradient id="paint4_linear" x1="139.416" y1="88.5347" x2="55.5498" y2="108.375" gradientUnits="userSpaceOnUse">
<stop stop-color="#FF9892"/>
<stop offset="1" stop-color="#FF7168" stop-opacity="0"/>
</linearGradient>
<radialGradient id="paint5_radial" cx="0" cy="0" r="1" gradientUnits="userSpaceOnUse" gradientTransform="translate(102.496 79.6751) rotate(86.9471) scale(13.2403 24.8305)">
<stop stop-color="white"/>
<stop offset="1" stop-color="white" stop-opacity="0"/>
</radialGradient>
<radialGradient id="paint6_radial" cx="0" cy="0" r="1" gradientUnits="userSpaceOnUse" gradientTransform="translate(128.685 83.9763) rotate(102.757) scale(9.3895 10.075)">
<stop stop-color="white"/>
<stop offset="1" stop-color="white" stop-opacity="0"/>
</radialGradient>
<linearGradient id="paint7_linear" x1="112.298" y1="98.7434" x2="113.042" y2="111.881" gradientUnits="userSpaceOnUse">
<stop stop-color="#EFEFEF" stop-opacity="0.6"/>
<stop offset="1" stop-color="#EFEFEF" stop-opacity="0"/>
</linearGradient>
<radialGradient id="paint8_radial" cx="0" cy="0" r="1" gradientUnits="userSpaceOnUse" gradientTransform="translate(98.3144 87.5405) rotate(76.1925) scale(13.507 22.3575)">
<stop offset="0.338542" stop-color="#FF8A83"/>
<stop offset="1" stop-color="#FF7168" stop-opacity="0"/>
</radialGradient>
<radialGradient id="paint9_radial" cx="0" cy="0" r="1" gradientUnits="userSpaceOnUse" gradientTransform="translate(133.996 87.4294) rotate(109.359) scale(13.078 32.0722)">
<stop offset="0.4375" stop-color="#FF776F"/>
<stop offset="1" stop-color="#FF7168" stop-opacity="0"/>
</radialGradient>
<radialGradient id="paint10_radial" cx="0" cy="0" r="1" gradientUnits="userSpaceOnUse" gradientTransform="translate(133.689 74.4628) rotate(108.435) scale(4.36339 5.98731)">
<stop stop-color="#FF8A83"/>
<stop offset="1" stop-color="#FF7168" stop-opacity="0"/>
</radialGradient>
<radialGradient id="paint11_radial" cx="0" cy="0" r="1" gradientUnits="userSpaceOnUse" gradientTransform="translate(100.581 82.4694) rotate(65.3284) scale(5.55226 10.6575)">
<stop stop-color="white" stop-opacity="0.8"/>
<stop offset="1" stop-color="white" stop-opacity="0"/>
</radialGradient>
<radialGradient id="paint12_radial" cx="0" cy="0" r="1" gradientUnits="userSpaceOnUse" gradientTransform="translate(129.321 84.4863) rotate(-67.8337) scale(6.03378 7.83677)">
<stop stop-color="white" stop-opacity="0.8"/>
<stop offset="1" stop-color="white" stop-opacity="0"/>
</radialGradient>
<radialGradient id="paint13_radial" cx="0" cy="0" r="1" gradientUnits="userSpaceOnUse" gradientTransform="translate(98.3144 87.5405) rotate(76.1925) scale(13.507 22.3575)">
<stop offset="0.338542" stop-color="#FF8A83"/>
<stop offset="1" stop-color="#FF7168" stop-opacity="0"/>
</radialGradient>
<radialGradient id="paint14_radial" cx="0" cy="0" r="1" gradientUnits="userSpaceOnUse" gradientTransform="translate(133.996 87.4294) rotate(109.359) scale(13.078 32.0722)">
<stop offset="0.4375" stop-color="#FF776F"/>
<stop offset="1" stop-color="#FF7168" stop-opacity="0"/>
</radialGradient>
<radialGradient id="paint15_radial" cx="0" cy="0" r="1" gradientUnits="userSpaceOnUse" gradientTransform="translate(133.689 74.4628) rotate(108.435) scale(4.36339 5.98731)">
<stop stop-color="#FF8A83"/>
<stop offset="1" stop-color="#FF7168" stop-opacity="0"/>
</radialGradient>
<radialGradient id="paint16_radial" cx="0" cy="0" r="1" gradientUnits="userSpaceOnUse" gradientTransform="translate(100.581 82.4694) rotate(65.3284) scale(5.55226 10.6575)">
<stop stop-color="white" stop-opacity="0.8"/>
<stop offset="1" stop-color="white" stop-opacity="0"/>
</radialGradient>
<radialGradient id="paint17_radial" cx="0" cy="0" r="1" gradientUnits="userSpaceOnUse" gradientTransform="translate(129.321 84.4863) rotate(-67.8337) scale(6.03378 7.83677)">
<stop stop-color="white" stop-opacity="0.8"/>
<stop offset="1" stop-color="white" stop-opacity="0"/>
</radialGradient>
<radialGradient id="paint18_radial" cx="0" cy="0" r="1" gradientUnits="userSpaceOnUse" gradientTransform="translate(98.3144 87.5405) rotate(76.1925) scale(13.507 22.3575)">
<stop offset="0.338542" stop-color="#FF8A83"/>
<stop offset="1" stop-color="#FF7168" stop-opacity="0"/>
</radialGradient>
<radialGradient id="paint19_radial" cx="0" cy="0" r="1" gradientUnits="userSpaceOnUse" gradientTransform="translate(133.996 87.4294) rotate(109.359) scale(13.078 32.0722)">
<stop offset="0.4375" stop-color="#FF776F"/>
<stop offset="1" stop-color="#FF7168" stop-opacity="0"/>
</radialGradient>
<radialGradient id="paint20_radial" cx="0" cy="0" r="1" gradientUnits="userSpaceOnUse" gradientTransform="translate(133.689 74.4628) rotate(108.435) scale(4.36339 5.98731)">
<stop stop-color="#FF8A83"/>
<stop offset="1" stop-color="#FF7168" stop-opacity="0"/>
</radialGradient>
<radialGradient id="paint21_radial" cx="0" cy="0" r="1" gradientUnits="userSpaceOnUse" gradientTransform="translate(100.581 82.4694) rotate(65.3284) scale(5.55226 10.6575)">
<stop stop-color="white" stop-opacity="0.8"/>
<stop offset="1" stop-color="white" stop-opacity="0"/>
</radialGradient>
<radialGradient id="paint22_radial" cx="0" cy="0" r="1" gradientUnits="userSpaceOnUse" gradientTransform="translate(129.321 84.4863) rotate(-67.8337) scale(6.03378 7.83677)">
<stop stop-color="white" stop-opacity="0.8"/>
<stop offset="1" stop-color="white" stop-opacity="0"/>
</radialGradient>
<radialGradient id="paint23_radial" cx="0" cy="0" r="1" gradientUnits="userSpaceOnUse" gradientTransform="translate(98.3144 87.5405) rotate(76.1925) scale(13.507 22.3575)">
<stop offset="0.338542" stop-color="#FF8A83"/>
<stop offset="1" stop-color="#FF7168" stop-opacity="0"/>
</radialGradient>
<radialGradient id="paint24_radial" cx="0" cy="0" r="1" gradientUnits="userSpaceOnUse" gradientTransform="translate(133.996 87.4294) rotate(109.359) scale(13.078 32.0722)">
<stop offset="0.4375" stop-color="#FF776F"/>
<stop offset="1" stop-color="#FF7168" stop-opacity="0"/>
</radialGradient>
<radialGradient id="paint25_radial" cx="0" cy="0" r="1" gradientUnits="userSpaceOnUse" gradientTransform="translate(133.689 74.4628) rotate(108.435) scale(4.36339 5.98731)">
<stop stop-color="#FF8A83"/>
<stop offset="1" stop-color="#FF7168" stop-opacity="0"/>
</radialGradient>
<radialGradient id="paint26_radial" cx="0" cy="0" r="1" gradientUnits="userSpaceOnUse" gradientTransform="translate(100.581 82.4694) rotate(65.3284) scale(5.55226 10.6575)">
<stop stop-color="white" stop-opacity="0.8"/>
<stop offset="1" stop-color="white" stop-opacity="0"/>
</radialGradient>
<radialGradient id="paint27_radial" cx="0" cy="0" r="1" gradientUnits="userSpaceOnUse" gradientTransform="translate(129.321 84.4863) rotate(-67.8337) scale(6.03378 7.83677)">
<stop stop-color="white" stop-opacity="0.8"/>
<stop offset="1" stop-color="white" stop-opacity="0"/>
</radialGradient>
<clipPath id="clip0">
<rect width="160" height="160" fill="white"/>
</clipPath>
</defs>
</svg>
