<svg viewBox="0 0 2243 365" xmlns="http://www.w3.org/2000/svg" fill="rgba(127,127,127,.5)">
<style xmlns="http://www.w3.org/2000/svg">
@keyframes spin {to{transform:rotate(-1turn)}}
@keyframes shift {to{transform:translateX(5.4%)}}
@keyframes pop {50%{transform:scale(0);opacity:0}}
#fan,#dots,#hash > path {transform-box: fill-box; transform-origin: center}
#fan {animation: spin 2s infinite linear}
#dots {animation: shift 2s infinite linear}
#hash > path {animation: pop 3s infinite}
</style>
<g id="motive">
<path id="caret" d="M745.416 15.4155H745.413C741.272 15.4139 737.916 12.0566 737.916 7.91553C737.916 3.77339 741.273 0.415527 745.416 0.415527V7.91553C745.416 0.415527 745.418 0.415527 745.42 0.415527L745.448 0.415567L745.516 0.415782C745.573 0.416017 745.652 0.416464 745.754 0.417319C745.957 0.419027 746.248 0.422362 746.623 0.428868C747.371 0.441879 748.451 0.467586 749.815 0.51839C752.541 0.619938 756.411 0.822094 761.047 1.22502C770.284 2.0279 782.719 3.64116 795.25 6.90875C807.681 10.1501 820.792 15.1661 830.94 23.1039C834.925 26.2211 838.485 29.8232 841.358 33.9463C844.231 29.8232 847.792 26.2211 851.776 23.1039C861.924 15.1661 875.035 10.1501 887.466 6.90875C899.997 3.64116 912.432 2.0279 921.669 1.22502C926.305 0.822094 930.175 0.619938 932.901 0.51839C934.265 0.467586 935.345 0.441879 936.093 0.428868C936.468 0.422362 936.759 0.419027 936.962 0.417319C937.064 0.416464 937.143 0.416017 937.2 0.415782L937.268 0.415567L937.296 0.415527C937.298 0.415527 937.301 0.415527 937.301 7.91553V0.415527C941.443 0.415527 944.801 3.77339 944.801 7.91553C944.801 12.0566 941.444 15.4139 937.304 15.4155H937.301L937.262 15.4157C937.227 15.4158 937.168 15.4161 937.089 15.4168C936.929 15.4181 936.682 15.4209 936.354 15.4266C935.698 15.438 934.718 15.4611 933.46 15.508C930.942 15.6018 927.321 15.7903 922.968 16.1687C914.227 16.9284 902.69 18.4405 891.25 21.4234C879.71 24.4326 868.85 28.7925 861.018 34.9185C853.408 40.8718 848.915 48.2306 848.915 57.92V307.04C848.915 316.727 853.407 324.084 861.018 330.036C868.849 336.161 879.709 340.52 891.25 343.529C902.69 346.511 914.227 348.023 922.968 348.783C927.321 349.161 930.942 349.349 933.46 349.443C934.718 349.49 935.698 349.513 936.354 349.525C936.682 349.53 936.929 349.533 937.089 349.534C937.168 349.535 937.227 349.535 937.262 349.536L937.298 349.536H937.301L937.304 15.4155L937.303 349.536C941.444 349.537 944.801 352.894 944.801 357.036C944.801 361.178 941.443 364.536 937.301 364.536V357.036C937.301 364.536 937.298 364.536 937.296 364.536H937.288L937.268 364.536L937.2 364.535C937.143 364.535 937.064 364.535 936.962 364.534C936.759 364.532 936.468 364.529 936.093 364.522C935.345 364.509 934.265 364.484 932.901 364.433C930.175 364.331 926.305 364.129 921.669 363.726C912.432 362.924 899.997 361.311 887.466 358.044C875.035 354.803 861.924 349.788 851.777 341.851C847.792 338.735 844.231 335.133 841.358 331.01C838.485 335.133 834.924 338.735 830.939 341.851C820.792 349.788 807.681 354.803 795.25 358.044C782.719 361.311 770.284 362.924 761.047 363.726C756.411 364.129 752.541 364.331 749.815 364.433C748.451 364.484 747.371 364.509 746.623 364.522C746.248 364.529 745.957 364.532 745.754 364.534C745.652 364.535 745.573 364.535 745.516 364.535L745.448 364.536L745.428 364.536H745.42C745.418 364.536 745.416 364.536 745.416 357.036V364.536C741.273 364.536 737.916 361.178 737.916 357.036C737.916 352.894 741.272 349.537 745.413 349.536V15.4155L745.416 349.536H745.418L745.454 349.536C745.49 349.535 745.548 349.535 745.628 349.534C745.787 349.533 746.034 349.53 746.362 349.525C747.018 349.513 747.998 349.49 749.256 349.443C751.774 349.349 755.395 349.161 759.748 348.783C768.489 348.023 780.026 346.511 791.466 343.529C803.007 340.52 813.867 336.161 821.698 330.036C829.309 324.084 833.801 316.727 833.801 307.04V57.92C833.801 48.2306 829.308 40.8718 821.698 34.9185C813.866 28.7925 803.006 24.4326 791.466 21.4234C780.026 18.4405 768.489 16.9284 759.748 16.1687C755.395 15.7903 751.774 15.6018 749.256 15.508C747.998 15.4611 747.018 15.438 746.362 15.4266C746.034 15.4209 745.787 15.4181 745.628 15.4168C745.548 15.4161 745.49 15.4158 745.454 15.4157L745.416 15.4155Z"/>
<path id="textfield-start" d="M790.106 81.6733C790.106 77.5312 786.748 74.1733 782.606 74.1733H22.6982C10.2718 74.1733 0.198181 84.2469 0.198181 96.6733V266.673C0.198181 279.1 10.2718 289.173 22.6982 289.173H782.606C786.748 289.173 790.106 285.815 790.106 281.673C790.106 277.531 786.748 274.173 782.606 274.173H22.6982C18.556 274.173 15.1982 270.815 15.1982 266.673V96.6733C15.1982 92.5312 18.556 89.1733 22.6982 89.1733H782.606C786.748 89.1733 790.106 85.8155 790.106 81.6733Z"/>
<path id="textfield-end" d="M1644.02 81.6733C1644.02 77.5312 1647.38 74.1733 1651.52 74.1733H2219.61C2232.03 74.1733 2242.11 84.2469 2242.11 96.6733V266.673C2242.11 279.1 2232.03 289.173 2219.61 289.173H1651.52C1647.38 289.173 1644.02 285.815 1644.02 281.673C1644.02 277.531 1647.38 274.173 1651.52 274.173H2219.61C2223.75 274.173 2227.11 270.815 2227.11 266.673V96.6733C2227.11 92.5312 2223.75 89.1733 2219.61 89.1733H1651.52C1647.38 89.1733 1644.02 85.8155 1644.02 81.6733Z"/>
<g id="Group 2">
<mask id="mask0" mask-type="alpha" maskUnits="userSpaceOnUse" x="32" y="74" width="2179" height="216">
<path id="dotmask" fill-rule="evenodd" clip-rule="evenodd" d="M783.768 74.1733H32.8407V289.173H783.768V74.1733ZM2210.14 74.1733H1637.52V289.173H2210.14V74.1733Z"/>
</mask>
<g mask="url(#mask0)">
<g id="dots">
<path d="M9.19672 182.476C9.19672 204.567 -8.71189 222.476 -30.8033 222.476C-52.8947 222.476 -70.8033 204.567 -70.8033 182.476C-70.8033 160.384 -52.8947 142.476 -30.8033 142.476C-8.71189 142.476 9.19672 160.384 9.19672 182.476Z"/>
<path d="M131.197 182.476C131.197 204.567 113.288 222.476 91.1967 222.476C69.1053 222.476 51.1967 204.567 51.1967 182.476C51.1967 160.384 69.1053 142.476 91.1967 142.476C113.288 142.476 131.197 160.384 131.197 182.476Z"/>
<path d="M253.197 182.476C253.197 204.567 235.288 222.476 213.197 222.476C191.105 222.476 173.197 204.567 173.197 182.476C173.197 160.384 191.105 142.476 213.197 142.476C235.288 142.476 253.197 160.384 253.197 182.476Z"/>
<path d="M375.197 182.476C375.197 204.567 357.288 222.476 335.197 222.476C313.105 222.476 295.197 204.567 295.197 182.476C295.197 160.384 313.105 142.476 335.197 142.476C357.288 142.476 375.197 160.384 375.197 182.476Z"/>
<path d="M497.197 182.476C497.197 204.567 479.288 222.476 457.197 222.476C435.105 222.476 417.197 204.567 417.197 182.476C417.197 160.384 435.105 142.476 457.197 142.476C479.288 142.476 497.197 160.384 497.197 182.476Z"/>
<path d="M619.197 182.476C619.197 204.567 601.288 222.476 579.197 222.476C557.105 222.476 539.197 204.567 539.197 182.476C539.197 160.384 557.105 142.476 579.197 142.476C601.288 142.476 619.197 160.384 619.197 182.476Z"/>
<path d="M742.645 182.476C742.645 204.567 724.737 222.476 702.645 222.476C680.554 222.476 662.645 204.567 662.645 182.476C662.645 160.384 680.554 142.476 702.645 142.476C724.737 142.476 742.645 160.384 742.645 182.476Z"/>
<path d="M864.645 182.476C864.645 204.567 846.737 222.476 824.645 222.476C802.554 222.476 784.645 204.567 784.645 182.476C784.645 160.384 802.554 142.476 824.645 142.476C846.737 142.476 864.645 160.384 864.645 182.476Z"/>
<path d="M986.645 182.476C986.645 204.567 968.737 222.476 946.645 222.476C924.554 222.476 906.645 204.567 906.645 182.476C906.645 160.384 924.554 142.476 946.645 142.476C968.737 142.476 986.645 160.384 986.645 182.476Z"/>
<path d="M1108.65 182.476C1108.65 204.567 1090.74 222.476 1068.65 222.476C1046.55 222.476 1028.65 204.567 1028.65 182.476C1028.65 160.384 1046.55 142.476 1068.65 142.476C1090.74 142.476 1108.65 160.384 1108.65 182.476Z"/>
<path d="M1230.65 182.476C1230.65 204.567 1212.74 222.476 1190.65 222.476C1168.55 222.476 1150.65 204.567 1150.65 182.476C1150.65 160.384 1168.55 142.476 1190.65 142.476C1212.74 142.476 1230.65 160.384 1230.65 182.476Z"/>
<path d="M1352.65 182.476C1352.65 204.567 1334.74 222.476 1312.65 222.476C1290.55 222.476 1272.65 204.567 1272.65 182.476C1272.65 160.384 1290.55 142.476 1312.65 142.476C1334.74 142.476 1352.65 160.384 1352.65 182.476Z"/>
<path d="M1476.22 182.476C1476.22 204.567 1458.32 222.476 1436.22 222.476C1414.13 222.476 1396.22 204.567 1396.22 182.476C1396.22 160.384 1414.13 142.476 1436.22 142.476C1458.32 142.476 1476.22 160.384 1476.22 182.476Z"/>
<path d="M1599.67 182.476C1599.67 204.567 1581.76 222.476 1559.67 222.476C1537.58 222.476 1519.67 204.567 1519.67 182.476C1519.67 160.384 1537.58 142.476 1559.67 142.476C1581.76 142.476 1599.67 160.384 1599.67 182.476Z"/>
<path d="M1721.67 182.476C1721.67 204.567 1703.76 222.476 1681.67 222.476C1659.58 222.476 1641.67 204.567 1641.67 182.476C1641.67 160.384 1659.58 142.476 1681.67 142.476C1703.76 142.476 1721.67 160.384 1721.67 182.476Z"/>
<path d="M1843.67 182.476C1843.67 204.567 1825.76 222.476 1803.67 222.476C1781.58 222.476 1763.67 204.567 1763.67 182.476C1763.67 160.384 1781.58 142.476 1803.67 142.476C1825.76 142.476 1843.67 160.384 1843.67 182.476Z"/>
<path d="M1965.67 182.476C1965.67 204.567 1947.76 222.476 1925.67 222.476C1903.58 222.476 1885.67 204.567 1885.67 182.476C1885.67 160.384 1903.58 142.476 1925.67 142.476C1947.76 142.476 1965.67 160.384 1965.67 182.476Z"/>
<path d="M2087.67 182.476C2087.67 204.567 2069.76 222.476 2047.67 222.476C2025.58 222.476 2007.67 204.567 2007.67 182.476C2007.67 160.384 2025.58 142.476 2047.67 142.476C2069.76 142.476 2087.67 160.384 2087.67 182.476Z"/>
<path d="M2209.67 182.476C2209.67 204.567 2191.76 222.476 2169.67 222.476C2147.58 222.476 2129.67 204.567 2129.67 182.476C2129.67 160.384 2147.58 142.476 2169.67 142.476C2191.76 142.476 2209.67 160.384 2209.67 182.476Z"/>
</g>
</g>
</g>
<g id="hash">
<path style="animation-delay:.0s" d="M967.647 296.568L977.505 298.306L989.212 276.081L1007.01 279.219L1008.48 270.897L993.368 268.233L1006.12 243.817L1024.3 247.023L1025.77 238.701L1010.28 235.97L1021.98 213.745L1012.13 212.007L1000.42 234.231L976.223 229.965L987.93 207.74L978.072 206.002L966.365 228.227L948.569 225.089L947.102 233.41L962.209 236.074L949.456 260.49L931.276 257.285L929.809 265.607L945.3 268.338L933.593 290.563L943.45 292.301L955.158 270.076L979.354 274.343L967.647 296.568ZM972.067 237.812L996.264 242.079L983.51 266.495L959.313 262.229L972.067 237.812Z"/>
<path style="animation-delay:.3s" d="M1195.08 147.555L1201.59 145.184L1200.92 127.807L1212.67 123.528L1210.67 118.031L1200.69 121.663L1199.89 102.61L1211.9 98.2388L1209.89 92.7416L1199.66 96.4662L1198.99 79.0887L1192.48 81.4589L1193.15 98.8364L1177.17 104.654L1176.49 87.2767L1169.98 89.6469L1170.65 107.024L1158.9 111.303L1160.9 116.8L1170.88 113.168L1171.68 132.222L1159.67 136.593L1161.67 142.09L1171.91 138.365L1172.58 155.743L1179.09 153.372L1178.42 135.995L1194.4 130.177L1195.08 147.555ZM1177.39 110.798L1193.37 104.98L1194.18 124.034L1178.2 129.851L1177.39 110.798Z"/>
<path style="animation-delay:.6s" d="M1048.39 139.642L1055.83 136.933L1051.62 125.356L1054.62 124.265C1065.06 120.466 1069.59 110.737 1065.79 100.297L1063.95 95.2324C1060.15 84.7924 1050.42 80.2561 1039.98 84.056L1036.98 85.147L1028.07 60.6492L1030.55 59.7463C1036.03 57.7523 1041.32 60.3916 1043.46 66.2834L1045.08 70.7282L1053.35 67.7184L1051.73 63.2737C1047.93 52.8337 1038.2 48.2973 1027.76 52.0972L1025.28 53.0001L1021.07 41.4231L1013.63 44.1319L1017.84 55.7089L1014.84 56.8C1004.4 60.5998 999.867 70.328 1003.67 80.768L1005.36 85.4195C1009.16 95.8595 1018.89 100.396 1029.33 96.5959L1032.33 95.5049L1041.39 120.416L1037.36 121.883C1031.88 123.877 1026.59 121.238 1024.45 115.346L1022.83 110.902L1014.56 113.911L1016.18 118.356C1019.98 128.796 1029.71 133.332 1040.15 129.533L1044.18 128.065L1048.39 139.642ZM1042.77 91.705C1048.24 89.7111 1053.54 92.3503 1055.68 98.2422L1057.52 103.307C1059.67 109.199 1057.31 114.622 1051.83 116.616L1048.83 117.707L1039.77 92.7961L1042.77 91.705ZM1013.63 82.4097L1011.94 77.7582C1009.79 71.8663 1012.15 66.443 1017.63 64.449L1020.63 63.358L1029.54 87.8558L1026.54 88.9468C1021.07 90.9408 1015.77 88.3016 1013.63 82.4097Z"/>
<path style="animation-delay:.9s" d="M1172.04 304.644L1178.28 308.244L1183.88 298.545L1186.39 299.995C1195.13 305.045 1204.56 302.519 1209.61 293.772L1212.06 289.529C1217.11 280.782 1214.58 271.356 1205.84 266.306L1203.33 264.856L1215.18 244.332L1217.25 245.532C1221.84 248.182 1223.1 253.409 1220.25 258.346L1218.1 262.069L1225.03 266.069L1227.18 262.346C1232.23 253.599 1229.7 244.173 1220.95 239.123L1218.88 237.923L1224.48 228.224L1218.24 224.624L1212.64 234.323L1210.13 232.873C1201.38 227.823 1191.96 230.349 1186.91 239.096L1184.66 242.993C1179.61 251.74 1182.13 261.165 1190.88 266.215L1193.39 267.665L1181.34 288.536L1177.96 286.586C1173.37 283.936 1172.12 278.709 1174.97 273.772L1177.12 270.049L1170.19 266.049L1168.04 269.772C1162.99 278.519 1165.52 287.945 1174.26 292.995L1177.64 294.945L1172.04 304.644ZM1202.14 272.715C1206.73 275.365 1207.98 280.593 1205.13 285.529L1202.68 289.772C1199.83 294.709 1194.68 296.236 1190.09 293.586L1187.58 292.136L1199.63 271.265L1202.14 272.715ZM1191.59 246.993L1193.84 243.096C1196.69 238.159 1201.84 236.632 1206.43 239.282L1208.94 240.732L1197.09 261.257L1194.58 259.806C1189.99 257.156 1188.74 251.929 1191.59 246.993Z"/>
<path style="animation-delay:1.2s" d="M1091.83 207.036L1111.99 212.076L1098.31 228.06L1109.11 235.404L1120.2 216.828L1131.29 235.404L1142.09 227.772L1128.12 211.788L1148.71 206.892L1144.83 194.508L1124.95 202.716L1126.39 181.26H1113.87L1115.31 203.004L1095.87 194.796L1091.83 207.036Z"/>
<path style="animation-delay:1.5s" d="M909.141 119.037L919.311 133.053L902.016 135.929L904.976 146.403L922.005 140.484L919.133 158.281L930.115 159.194L929.761 141.509L945.529 149.413L949.68 139.425L932.598 134.02L945.01 121.095L937.013 114.384L926.284 129.036L918.271 113.383L909.141 119.037Z"/>
</g>
<path id="fan" d="M1426.39 108.034C1412.05 109.215 1402.52 114.771 1397.14 125.02L1395.64 127.927L1395.96 130.95C1397.02 140.307 1401.86 150.555 1409.92 160.488C1411.27 162.186 1412.39 163.626 1412.39 163.713C1412.39 163.8 1411.82 164.634 1411.13 165.585C1410.44 166.534 1409.8 167.457 1409.75 167.629C1409.69 167.83 1400.94 163.11 1388.9 156.373C1377.53 150.009 1368.12 144.741 1368.03 144.682C1367.71 144.51 1363.6 152.83 1362.45 155.91C1360.69 160.689 1360.17 163.395 1360.2 168.174C1360.2 171.484 1360.34 172.809 1360.8 174.565C1361.73 177.963 1363.02 180.813 1364.98 183.778C1366.62 186.225 1366.91 186.541 1368.63 187.377C1377.53 191.811 1391.26 192.933 1406.26 190.486L1407.44 190.285L1408.48 192.502C1409.05 193.74 1409.52 194.833 1409.52 194.92C1409.52 195.036 1400.19 200.419 1388.79 206.896C1377.39 213.373 1368.06 218.757 1368.06 218.872C1368.06 219.304 1373.01 226.473 1374.82 228.603C1382.31 237.585 1391.35 241.816 1401.74 241.183L1404.76 241.011L1407.21 239.37C1410.35 237.211 1414.9 232.72 1417.6 229.063C1421.32 224.055 1425.06 217.144 1427.39 210.984C1428.23 208.738 1428.4 208.45 1428.94 208.594C1429.29 208.681 1430.5 208.854 1431.62 208.939L1433.7 209.14V255.117H1435.08C1438.16 255.117 1444.4 254.484 1447.72 253.821C1458.4 251.662 1465.71 246.48 1470.23 237.814L1471.75 234.936L1471.44 231.999C1471.09 228.802 1470.11 224.802 1468.9 221.577C1466.83 215.992 1462.26 208.333 1457.42 202.317C1455.66 200.13 1454.97 199.093 1455.17 198.834C1455.32 198.603 1455.95 197.682 1456.55 196.761C1457.19 195.84 1457.71 195.063 1457.76 195.004C1457.79 194.947 1467.09 200.1 1478.46 206.463C1489.81 212.826 1499.28 217.95 1499.48 217.863C1500.14 217.603 1504.37 208.708 1505.47 205.311C1506.99 200.475 1507.22 198.978 1507.2 194.515C1507.2 191.377 1507.05 189.996 1506.59 188.268C1505.67 184.899 1504.37 182.02 1502.42 179.055C1500.78 176.58 1500.49 176.32 1498.76 175.456C1494.64 173.442 1488.88 171.945 1482.64 171.31C1478.49 170.878 1469.94 171.109 1465.08 171.799C1459.52 172.576 1460.01 172.72 1458.83 170.101C1458.25 168.892 1457.85 167.827 1457.91 167.769C1457.96 167.682 1467.29 162.385 1478.61 155.937C1489.92 149.488 1499.25 144.162 1499.31 144.105C1499.48 143.932 1496.77 139.758 1494.56 136.764C1486.5 125.968 1477.28 121.074 1465.94 121.65L1462.63 121.822L1460.27 123.435C1452.41 128.761 1445.04 138.952 1440.29 151.129C1439.19 153.951 1438.93 154.354 1438.45 154.239C1438.13 154.152 1436.92 154.008 1435.8 153.894L1433.7 153.693V107.716L1431.48 107.745C1430.24 107.775 1427.94 107.89 1426.39 108.034Z"/>
<g id="fan-housing">
<path fill-rule="evenodd" clip-rule="evenodd" d="M1298.7 56.4165C1290.41 56.4165 1283.7 63.1322 1283.7 71.4165V291.416C1283.7 299.701 1290.41 306.416 1298.7 306.416H1568.7C1576.98 306.416 1583.7 299.701 1583.7 291.416V71.4165C1583.7 63.1322 1576.98 56.4165 1568.7 56.4165H1298.7ZM1433.7 290.358C1494.45 290.358 1543.7 241.109 1543.7 180.358C1543.7 119.607 1494.45 70.3581 1433.7 70.3581C1372.95 70.3581 1323.7 119.607 1323.7 180.358C1323.7 241.109 1372.95 290.358 1433.7 290.358Z"/>
<path fill-rule="evenodd" clip-rule="evenodd" d="M1276.2 71.4165C1276.2 58.9901 1286.27 48.9165 1298.7 48.9165H1568.7C1581.12 48.9165 1591.2 58.9901 1591.2 71.4165V291.416C1591.2 303.843 1581.12 313.916 1568.7 313.916H1298.7C1286.27 313.916 1276.2 303.843 1276.2 291.416V71.4165ZM1433.7 77.8581C1377.09 77.8581 1331.2 123.749 1331.2 180.358C1331.2 236.967 1377.09 282.858 1433.7 282.858C1490.31 282.858 1536.2 236.967 1536.2 180.358C1536.2 123.749 1490.31 77.8581 1433.7 77.8581Z"/>
</g>
</g>
</svg>
