<svg width="160" height="160" viewBox="0 0 160 160" fill="none" xmlns="http://www.w3.org/2000/svg">
<path fill-rule="evenodd" clip-rule="evenodd" d="M83.6589 87.3796L29.0151 101.246C24.1367 102.484 20.7207 106.875 20.7207 111.908V117.92L103.184 96.9942V88.7702H113.499V94.3768L119.296 92.9057V88.7449H123.546V91.8271L139.3 87.8296V73.2604L103.106 82.4449V87.3796H83.6589ZM113.606 81.6369H119.29V87.3214H113.606V81.6369Z" fill="#FF7168"/>
<path fill-rule="evenodd" clip-rule="evenodd" d="M83.6589 87.3796L29.0151 101.246C24.1367 102.484 20.7207 106.875 20.7207 111.908V117.92L103.184 96.9942V88.7702H113.499V94.3768L119.296 92.9057V88.7449H123.546V91.8271L139.3 87.8296V73.2604L103.106 82.4449V87.3796H83.6589ZM113.606 81.6369H119.29V87.3214H113.606V81.6369Z" fill="url(#paint0_linear)"/>
<path fill-rule="evenodd" clip-rule="evenodd" d="M20.7207 29.9964H61.7207V40.3964H32.7207V59.5964H59.7207V69.9964H32.7207V97.0106L20.9766 99.9964H20.7207V29.9964ZM119.279 75.0042V40.3964H139.279V29.9964H87.2793V40.3964H107.279V78.055L119.279 75.0042ZM81.2559 84.6712V29.9964H69.2559V87.722L81.2559 84.6712Z" fill="#E11F65"/>
<path d="M113.54 97.4929V129.644H119.355V122.032L122.086 118.843L129.065 129.644H135.79L125.828 114.42L134.779 103.928H128.407L119.608 114.42H119.355V95.9892L113.54 97.4929Z" fill="#2E2E2E"/>
<path d="M41.4743 112.671H35.659V111.54C35.659 109.688 34.6982 108.454 32.372 108.454H29.5908C27.7703 108.454 26.5567 109.688 26.5567 111.54V122.032C26.5567 123.883 27.7703 125.118 29.5908 125.118H32.372C34.6982 125.118 35.659 123.883 35.659 122.032V120.9H41.4743V121.415C41.4743 126.969 39.0976 130.004 31.3607 130.004C23.6237 130.004 20.7413 126.969 20.7413 121.415V112.157C20.7413 106.602 23.6237 103.568 31.3607 103.568C39.0976 103.568 41.4743 106.602 41.4743 112.157V112.671Z" fill="#2E2E2E"/>
<path d="M52.0372 106.654C54.0599 104.082 56.6389 102.899 59.5718 103.928V108.968H56.386C53.6553 108.968 51.8349 110.82 51.8349 113.597V129.644H46.0195V103.928H51.3292L51.8349 106.654H52.0372Z" fill="#2E2E2E"/>
<path fill-rule="evenodd" clip-rule="evenodd" d="M72.8152 114.06H77.1135V112.311C77.1135 109.688 75.8999 108.454 73.3209 108.454H71.551C69.2248 108.454 68.264 109.688 68.264 111.54V112.157H62.4487C62.4487 106.602 64.8254 103.568 72.5624 103.568C80.0465 103.568 82.9289 106.859 82.9289 112.928V129.644H77.6192L77.1135 126.661H76.9112C75.3436 128.461 73.4726 130.004 69.7305 130.004C64.522 130.004 61.589 127.123 61.589 122.546C61.589 117.197 64.9265 114.06 72.8152 114.06ZM77.1135 120.232V118.637H72.5118C69.2754 118.637 67.3033 119.409 67.3033 122.083C67.3033 123.935 68.264 125.118 70.6913 125.118H71.551C74.9896 125.118 77.1135 122.752 77.1135 120.232Z" fill="#2E2E2E"/>
<path d="M108.995 112.671H103.179V111.54C103.179 109.688 102.219 108.454 99.8925 108.454H97.1113C95.2908 108.454 94.0772 109.688 94.0772 111.54V122.032C94.0772 123.883 95.2908 125.118 97.1113 125.118H99.8925C102.219 125.118 103.179 123.883 103.179 122.032V120.9H108.995V121.415C108.995 126.969 106.618 130.004 98.8812 130.004C91.1442 130.004 88.2618 126.969 88.2618 121.415V112.157C88.2618 106.602 91.1442 103.568 98.8812 103.568C106.618 103.568 108.995 106.602 108.995 112.157V112.671Z" fill="#2E2E2E"/>
<defs>
<linearGradient id="paint0_linear" x1="20.7207" y1="117.92" x2="139.3" y2="87.7511" gradientUnits="userSpaceOnUse">
<stop stop-color="#F9C2D5"/>
<stop offset="1" stop-color="#FF7168" stop-opacity="0"/>
</linearGradient>
</defs>
</svg>
