<svg width="160" height="160" viewBox="0 0 160 160" fill="none" xmlns="http://www.w3.org/2000/svg">
<path fill-rule="evenodd" clip-rule="evenodd" d="M20.7207 25H61.7207V35.4H32.7207V54.6H59.7207V65H32.7207V91.1802L20.7207 94.9751V25ZM119.279 63.8071V35.4H139.279V25H87.2793V35.4H107.279V67.602L119.279 63.8071ZM81.2559 75.8315V25H69.2559V79.6264L81.2559 75.8315Z" fill="#FF975E"/>
<path fill-rule="evenodd" clip-rule="evenodd" d="M29.2727 100.307L104.795 78.335L100.654 82.476C99.5017 81.9212 98.1908 81.7913 96.9524 82.1095C95.7141 82.4277 94.6281 83.1734 93.8863 84.2147C93.1446 85.2561 92.7948 86.5262 92.8989 87.8005C93.0029 89.0748 93.5541 90.2714 94.455 91.1786C95.3559 92.0859 96.5484 92.6455 97.822 92.7586C99.0955 92.8716 100.368 92.5308 101.415 91.7965C102.461 91.0621 103.215 89.9814 103.542 88.7453C103.868 87.5093 103.748 86.1974 103.201 85.0417L111.205 77.0195C112.684 77.9985 114.419 78.5205 116.192 78.5205C117.966 78.5205 119.7 77.9985 121.179 77.0195L129.183 85.0597C128.634 86.2137 128.51 87.5246 128.834 88.761C129.012 89.4427 129.32 90.0776 129.736 90.6336L121.304 92.6989C121.549 91.8948 121.606 91.0388 121.462 90.1988C121.246 88.9385 120.591 87.7953 119.614 86.9711C118.636 86.147 117.398 85.695 116.12 85.695C114.841 85.695 113.604 86.147 112.626 86.9711C111.648 87.7953 110.994 88.9385 110.777 90.1988C110.561 91.459 110.797 92.7551 111.444 93.858C111.672 94.2451 111.944 94.5997 112.254 94.9154L92.3766 99.7842C92.4997 99.2394 92.5389 98.6747 92.4887 98.1099C92.3757 96.8363 91.8161 95.6438 90.9088 94.7429C90.0015 93.842 88.805 93.2908 87.5307 93.1868C86.2564 93.0827 84.9863 93.4325 83.9449 94.1742C82.9035 94.916 82.1579 96.002 81.8397 97.2403C81.5215 98.4787 81.6513 99.7896 82.2062 100.941L80.4398 102.708L61.1227 107.439C59.4073 106.965 57.7268 107.049 56.1634 107.643C55.5945 107.859 55.0551 108.137 54.545 108.467L54.3625 107.5H45.3496V111.303L43.0116 111.875C42.6086 111.14 42.0901 110.463 41.4317 109.86C39.3065 107.916 36.1383 107.143 32.0555 107.143C27.9628 107.143 24.7142 107.92 22.4823 109.809C22.0537 110.172 21.6762 110.564 21.3455 110.981V110.869C21.3455 105.977 24.5758 101.673 29.2727 100.307ZM40.9752 112.374L36.7211 113.416V111.331H27.0357V115.788L21.3531 117.18C21.5208 111.978 24.4821 109.143 32.0555 109.143C36.8064 109.143 39.5532 110.258 40.9752 112.374ZM52.7048 109.501L47.3496 110.813V109.5H52.7046L52.7048 109.501ZM139.416 74.6079V86.4527C139.279 85.6699 138.97 84.921 138.506 84.2624C137.768 83.2184 136.686 82.4684 135.45 82.1449C134.213 81.8213 132.903 81.945 131.749 82.4941L123.726 74.49C124.129 73.8815 124.455 73.2279 124.699 72.5441L132.447 70.2901C132.528 70.7981 132.682 71.2963 132.908 71.7689C133.528 73.0667 134.638 74.065 135.995 74.5442C137.105 74.9365 138.305 74.9546 139.416 74.6079Z" fill="#FFCBAD"/>
<path fill-rule="evenodd" clip-rule="evenodd" d="M116.976 103.542V135H122.841V127.452L125.595 124.29L132.633 135H139.416L129.369 119.904L138.396 109.5H131.97L123.096 119.904H122.841V102.192L116.976 103.542ZM42.2555 118.17H36.3905V117.048C36.3905 115.212 35.4215 113.988 33.0755 113.988H30.2705C28.4345 113.988 27.2105 115.212 27.2105 117.048V127.452C27.2105 129.288 28.4345 130.512 30.2705 130.512H33.0755C35.4215 130.512 36.3905 129.288 36.3905 127.452V126.33H42.2555V126.84C42.2555 132.348 39.8585 135.357 32.0555 135.357C24.2525 135.357 21.3455 132.348 21.3455 126.84V117.66C21.3455 112.152 24.2525 109.143 32.0555 109.143C39.8585 109.143 42.2555 112.152 42.2555 117.66V118.17ZM53.4185 112.203C55.4585 109.653 58.0595 108.48 61.0175 109.5V114.498H57.8045C55.0505 114.498 53.2145 116.334 53.2145 119.088V135H47.3495V109.5H52.7045L53.2145 112.203H53.4185ZM79.219 125.667V124.086H74.578C71.314 124.086 69.325 124.851 69.325 127.503C69.325 129.339 70.294 130.512 72.742 130.512H73.609C77.077 130.512 79.219 128.166 79.219 125.667ZM74.884 119.547H79.219V117.813C79.219 115.212 77.995 113.988 75.394 113.988H73.609C71.263 113.988 70.294 115.212 70.294 117.048V117.66H64.429C64.429 112.152 66.826 109.143 74.629 109.143C82.177 109.143 85.084 112.407 85.084 118.425V135H79.729L79.219 132.042H79.015C77.434 133.827 75.547 135.357 71.773 135.357C66.52 135.357 63.562 132.501 63.562 127.962C63.562 122.658 66.928 119.547 74.884 119.547ZM111.882 118.17H106.017V117.048C106.017 115.212 105.048 113.988 102.702 113.988H99.8975C98.0615 113.988 96.8375 115.212 96.8375 117.048V127.452C96.8375 129.288 98.0615 130.512 99.8975 130.512H102.702C105.048 130.512 106.017 129.288 106.017 127.452V126.33H111.882V126.84C111.882 132.348 109.485 135.357 101.682 135.357C93.8795 135.357 90.9725 132.348 90.9725 126.84V117.66C90.9725 112.152 93.8795 109.143 101.682 109.143C109.485 109.143 111.882 112.152 111.882 117.66V118.17Z" fill="white"/>
</svg>
